<svg width="225" height="289" viewBox="0 0 225 289" fill="none" xmlns="http://www.w3.org/2000/svg">
<g id="leaves/11">
<path id="Vector 170" d="M118.149 43.5328C135.762 42.3865 139.923 1.66236 144.032 -15.173L146.029 -15.0216C147.001 28.8469 165.18 39.085 170.248 43.6434C197.002 67.7118 193.364 81.5981 189.574 84.9015C174.392 95.2264 159.099 66.3771 154.618 50.1627C150.763 82.9591 158.052 101.18 162.179 106.192C172.356 118.895 188.821 145.69 173.27 151.237C157.719 156.784 147.856 129.271 144.869 114.821C135.885 123.76 133.506 153.112 144.363 167.874C162.737 192.854 160.946 198.9 156.015 201.295C142.345 209.721 125.895 183.053 119.378 168.666C126.455 193.27 128.06 234.209 107.5 231.629C83.978 228.677 97.7353 184.191 109.407 165.897C98.3891 176.09 74.2589 193.427 65.8786 181.235C55.4032 165.994 83.9736 162.884 104.869 151.937C121.586 143.18 129.052 125.215 130.696 117.327C112.007 135.55 97.7553 132.476 94.5622 129.933C78.5967 117.217 97.8119 108.38 121.005 92.3652C139.559 79.5533 141.509 53.5166 140.165 42.0997C114.305 78.0622 83.7935 82.2991 75.3484 73.2448C56.5824 53.1251 96.133 44.9656 118.149 43.5328Z" fill="url(#paint0_linear_47_116)" fill-opacity="0.85"/>
</g>
<defs>
<linearGradient id="paint0_linear_47_116" x1="60.7921" y1="197.203" x2="197.299" y2="25.8138" gradientUnits="userSpaceOnUse">
<stop stop-color="#322E2F"/>
<stop offset="1" stop-color="#988C8F" stop-opacity="0.65"/>
</linearGradient>
</defs>
</svg>
