<svg width="156" height="129" viewBox="0 0 156 129" fill="none" xmlns="http://www.w3.org/2000/svg">
<g id="leaves/11">
<path id="Vector 170" d="M25.0711 18.5765C34.0361 11.5228 21.356 -11.6976 17.3868 -22.1707L18.5062 -22.8206C35.0714 0.197534 48.503 -0.997738 52.8703 -0.422578C75.9299 2.61428 79.0712 11.3439 78.2599 14.4906C73.9478 25.5454 55.2464 15.7684 46.9274 8.76845C56.8705 27.6529 67.42 34.6949 71.4519 35.8553C81.5213 38.9013 100.096 47.1544 93.8391 55.7987C87.5823 64.4431 72.263 53.3917 65.3854 46.7854C63.8688 54.8344 73.3384 71.3441 84.523 75.2374C103.451 81.826 104.708 85.7024 102.957 88.7824C98.7558 98.272 80.2356 90.081 71.5006 84.7993C84.2715 95.3201 100.102 116.546 88.2042 122.692C74.5913 129.723 65.6482 100.988 65.1748 86.9716C63.0331 96.4327 56.5184 114.497 47.5931 111.066C36.4365 106.778 50.5215 94.6697 57.6506 81.1933C63.3539 70.4122 60.7603 58.1092 58.7506 53.3054C55.459 69.8511 46.7411 73.4266 44.1095 73.2396C30.9513 72.3047 37.9568 60.5673 44.4559 43.5503C49.6551 29.9368 41.1697 15.3507 36.2772 9.75941C35.6541 38.3803 20.9471 51.7991 13.1354 50.0641C-4.22333 46.2088 13.8649 27.3935 25.0711 18.5765Z" fill="url(#paint0_linear_47_124)" fill-opacity="0.85"/>
</g>
<defs>
<linearGradient id="paint0_linear_47_124" x1="50.7244" y1="121.435" x2="60.7615" y2="-19.818" gradientUnits="userSpaceOnUse">
<stop stop-color="#322E2F"/>
<stop offset="1" stop-color="#988C8F" stop-opacity="0.65"/>
</linearGradient>
</defs>
</svg>
