<svg width="225" height="289" viewBox="0 0 225 289" fill="none" xmlns="http://www.w3.org/2000/svg">
<g id="leaves/11">
<path id="Vector 170" d="M106.642 43.5328C89.0297 42.3865 84.8687 1.66236 80.7596 -15.173L78.7627 -15.0216C77.7908 28.8469 59.611 39.085 54.5439 43.6434C27.7892 67.7118 31.4272 81.5981 35.2179 84.9015C50.3996 95.2264 65.6924 66.3771 70.1737 50.1627C74.0287 82.9591 66.739 101.18 62.6123 106.192C52.4356 118.895 35.9701 145.69 51.5214 151.237C67.0727 156.784 76.9354 129.271 79.9228 114.821C88.9063 123.76 91.2857 153.112 80.4283 167.874C62.0543 192.854 63.8457 198.9 68.7769 201.295C82.4461 209.721 98.8967 183.053 105.413 168.666C98.3367 193.27 96.7318 234.209 117.291 231.629C140.814 228.677 127.056 184.191 115.385 165.897C126.402 176.09 150.533 193.427 158.913 181.235C169.388 165.994 140.818 162.884 119.922 151.937C103.205 143.18 95.7394 125.215 94.0959 117.327C112.785 135.55 127.036 132.476 130.229 129.933C146.195 117.217 126.98 108.38 103.787 92.3652C85.2326 79.5533 83.2825 53.5166 84.6267 42.0997C110.487 78.0622 140.998 82.2991 149.443 73.2448C168.209 53.1251 128.658 44.9656 106.642 43.5328Z" fill="url(#paint0_linear_47_123)" fill-opacity="0.85"/>
</g>
<defs>
<linearGradient id="paint0_linear_47_123" x1="163.999" y1="197.203" x2="27.4923" y2="25.8138" gradientUnits="userSpaceOnUse">
<stop stop-color="#322E2F"/>
<stop offset="1" stop-color="#988C8F" stop-opacity="0.65"/>
</linearGradient>
</defs>
</svg>
