<svg width="44" height="42" viewBox="0 0 44 42" fill="none" xmlns="http://www.w3.org/2000/svg">
<path d="M25.675 10.85C25.675 6.98401 24.3196 6.77017e-06 22 6.3646e-06C19.6804 5.95903e-06 18.325 6.98401 18.325 10.85C18.325 14.716 19.6804 21 22 21C24.3196 21 25.675 14.716 25.675 10.85Z" fill="#2B2B2B"/>
<path d="M32.6411 19.22C35.9891 17.287 41.3598 12.6212 40.2 10.6123C39.0402 8.6035 32.3141 10.9217 28.9661 12.8547C25.618 14.7877 20.8536 19.1035 22.0134 21.1123C23.1732 23.1211 29.293 21.153 32.6411 19.22Z" fill="#2B2B2B"/>
<path d="M28.9661 29.37C32.3142 31.303 39.0402 33.6211 40.2 31.6123C41.3598 29.6035 35.9892 24.9377 32.6411 23.0047C29.2931 21.0717 23.1733 19.1035 22.0135 21.1123C20.8537 23.1211 25.6181 27.437 28.9661 29.37Z" fill="#2B2B2B"/>
<path d="M18.325 31.15C18.325 35.016 19.6804 42 22 42C24.3196 42 25.675 35.016 25.675 31.15C25.675 27.284 24.3196 21 22 21C19.6804 21 18.325 27.284 18.325 31.15Z" fill="#2B2B2B"/>
<path d="M15.0339 12.9801C11.6858 11.0471 4.95978 8.72895 3.79998 10.7378C2.64018 12.7466 8.01081 17.4124 11.3589 19.3454C14.7069 21.2784 20.8267 23.2466 21.9865 21.2378C23.1463 19.229 18.3819 14.9131 15.0339 12.9801Z" fill="#2B2B2B"/>
<path d="M11.3589 23.1301C8.01083 25.0631 2.64021 29.7289 3.80001 31.7378C4.9598 33.7466 11.6858 31.4284 15.0339 29.4954C18.3819 27.5624 23.1463 23.2466 21.9865 21.2378C20.8267 19.229 14.7069 21.1971 11.3589 23.1301Z" fill="#2B2B2B"/>
<g style="mix-blend-mode:multiply">
<ellipse cx="22" cy="20.9999" rx="4.73529" ry="4.73529" fill="#2B2B2B"/>
<g style="mix-blend-mode:multiply">
<path d="M25.7828 22C25.0994 22 24.5455 21 24.5455 21C24.5455 21 25.0994 20 25.7828 20C26.4662 20 29 21 29 21C29 21 26.4662 22 25.7828 22Z" fill="#2B2B2B"/>
</g>
<g style="mix-blend-mode:multiply">
<path d="M23.9678 24.382C23.4845 23.8988 23.7999 22.7999 23.7999 22.7999C23.7999 22.7999 24.8988 22.4846 25.382 22.9678C25.8652 23.451 26.9498 25.9498 26.9498 25.9498C26.9498 25.9498 24.451 24.8652 23.9678 24.382Z" fill="#2B2B2B"/>
</g>
<g style="mix-blend-mode:multiply">
<path d="M21 24.7828C21 24.0994 22 23.5455 22 23.5455C22 23.5455 23 24.0994 23 24.7828C23 25.4662 22 28 22 28C22 28 21 25.4662 21 24.7828Z" fill="#2B2B2B"/>
</g>
<g style="mix-blend-mode:multiply">
<path d="M18.618 22.9679C19.1013 22.4847 20.2001 22.8 20.2001 22.8C20.2001 22.8 20.5155 23.8989 20.0322 24.3821C19.549 24.8653 17.0502 25.9499 17.0502 25.9499C17.0502 25.9499 18.1348 23.4511 18.618 22.9679Z" fill="#2B2B2B"/>
</g>
<g style="mix-blend-mode:multiply">
<path d="M18.2172 20C18.9006 20 19.4545 21 19.4545 21C19.4545 21 18.9006 22 18.2172 22C17.5338 22 15 21 15 21C15 21 17.5338 20 18.2172 20Z" fill="#2B2B2B"/>
</g>
<g style="mix-blend-mode:multiply">
<path d="M20.0322 17.618C20.5155 18.1012 20.2001 19.2001 20.2001 19.2001C20.2001 19.2001 19.1012 19.5154 18.618 19.0322C18.1348 18.549 17.0502 16.0502 17.0502 16.0502C17.0502 16.0502 19.549 17.1348 20.0322 17.618Z" fill="#2B2B2B"/>
</g>
<g style="mix-blend-mode:multiply">
<path d="M23 17.2172C23 17.9006 22 18.4545 22 18.4545C22 18.4545 21 17.9006 21 17.2172C21 16.5338 22 14 22 14C22 14 23 16.5338 23 17.2172Z" fill="#2B2B2B"/>
</g>
<g style="mix-blend-mode:multiply">
<path d="M25.382 19.0321C24.8987 19.5153 23.7999 19.2 23.7999 19.2C23.7999 19.2 23.4845 18.1011 23.9678 17.6179C24.451 17.1347 26.9498 16.0501 26.9498 16.0501C26.9498 16.0501 25.8652 18.5489 25.382 19.0321Z" fill="#2B2B2B"/>
</g>
</g>
</svg>
