<svg width="44" height="44" viewBox="0 0 44 44" fill="none" xmlns="http://www.w3.org/2000/svg">
<g id="fluent:tree-deciduous-28-filled">
<path id="Vector" d="M14.4729 8.74021C14.9595 7.12237 15.9544 5.70436 17.3102 4.69637C18.666 3.68838 20.3105 3.14404 22 3.14404C23.6894 3.14404 25.3339 3.68838 26.6897 4.69637C28.0455 5.70436 29.0405 7.12237 29.5271 8.74021C30.6233 8.91535 31.6698 9.32075 32.5979 9.92971C33.5259 10.5387 34.3145 11.3374 34.9115 12.2732C35.5085 13.209 35.9004 14.2606 36.0614 15.3589C36.2225 16.4572 36.149 17.5771 35.8459 18.6449C37.2354 19.5896 38.2856 20.9548 38.8421 22.5402C39.3987 24.1256 39.4324 25.8477 38.9382 27.4536C38.444 29.0596 37.448 30.4648 36.0964 31.463C34.7448 32.4613 33.1088 32.9999 31.4286 32.9999H26.7143V37.7142C26.7143 38.5478 26.3832 39.3471 25.7938 39.9366C25.2044 40.526 24.405 40.8571 23.5714 40.8571H20.4286C19.595 40.8571 18.7956 40.526 18.2062 39.9366C17.6168 39.3471 17.2857 38.5478 17.2857 37.7142V32.9999H12.5714C10.8912 32.9999 9.25516 32.4613 7.90356 31.463C6.55197 30.4648 5.55598 29.0596 5.0618 27.4536C4.56762 25.8477 4.60128 24.1256 5.15785 22.5402C5.71441 20.9548 6.76456 19.5896 8.15414 18.6449C7.85096 17.5771 7.77748 16.4572 7.93854 15.3589C8.0996 14.2606 8.49154 13.209 9.08853 12.2732C9.68553 11.3374 10.474 10.5387 11.4021 9.92971C12.3302 9.32075 13.3767 8.91535 14.4729 8.74021ZM19.6429 37.7142C19.6429 37.9226 19.7256 38.1224 19.873 38.2698C20.0203 38.4171 20.2202 38.4999 20.4286 38.4999H23.5714C23.7798 38.4999 23.9797 38.4171 24.127 38.2698C24.2744 38.1224 24.3571 37.9226 24.3571 37.7142V32.9999H19.6429V37.7142Z" fill="#2B2B2B"/>
</g>
</svg>
