<svg width="96" height="27" viewBox="0 0 96 27" fill="none" xmlns="http://www.w3.org/2000/svg">
<path d="M20.904 20.04C21.0907 20.04 21.184 20.1427 21.184 20.348V22.644C21.184 22.868 21.0907 22.98 20.904 22.98H0.464C0.221333 22.98 0.1 22.868 0.1 22.644V20.348C0.1 20.1427 0.221333 20.04 0.464 20.04H8.78V15.644H5.644C4.524 15.644 3.63733 15.3453 2.984 14.748C2.34933 14.132 2.032 13.292 2.032 12.228V4.64C2.032 3.856 2.26533 3.24 2.732 2.792C3.21733 2.344 3.88 2.12 4.72 2.12H18.888C18.9627 2.12 19.0373 2.15733 19.112 2.232C19.1867 2.288 19.224 2.35333 19.224 2.428V4.808C19.224 4.90133 19.1867 4.976 19.112 5.032C19.0373 5.088 18.9627 5.116 18.888 5.116H7.268C6.67067 5.116 6.26 5.256 6.036 5.536C5.812 5.79733 5.7 6.208 5.7 6.768V7.692H18.636C18.8227 7.692 18.916 7.804 18.916 8.028V10.156C18.916 10.3427 18.8227 10.436 18.636 10.436H5.7V10.828C5.7 11.4813 5.85867 11.948 6.176 12.228C6.512 12.508 7.016 12.648 7.688 12.648H18.916C18.9907 12.648 19.056 12.6853 19.112 12.76C19.1867 12.816 19.224 12.8907 19.224 12.984V15.308C19.224 15.4013 19.1867 15.4853 19.112 15.56C19.056 15.616 18.9907 15.644 18.916 15.644H12.448V20.04H20.904ZM27.7749 19.984C27.7003 19.984 27.6256 19.956 27.5509 19.9C27.4949 19.8253 27.4669 19.7413 27.4669 19.648V17.38C27.4669 17.2867 27.4949 17.212 27.5509 17.156C27.6256 17.0813 27.7003 17.044 27.7749 17.044H40.3469C41.4669 17.044 42.3443 17.352 42.9789 17.968C43.6323 18.5653 43.9589 19.396 43.9589 20.46V25.64C43.9589 25.7333 43.9216 25.8267 43.8469 25.92C43.7723 26.0133 43.6603 26.06 43.5109 26.06H40.7389C40.6083 26.06 40.4963 26.0133 40.4029 25.92C40.3283 25.8267 40.2909 25.7333 40.2909 25.64V21.804C40.2909 21.1507 40.1229 20.684 39.7869 20.404C39.4696 20.124 38.9749 19.984 38.3029 19.984H27.7749ZM46.9269 5.648C47.1883 5.648 47.3189 5.79733 47.3189 6.096V7.748C47.3189 7.84133 47.2816 7.93467 47.2069 8.028C47.1323 8.10267 47.0389 8.14 46.9269 8.14H43.9589V14.356C43.9589 14.4867 43.9123 14.5893 43.8189 14.664C43.7256 14.7387 43.6229 14.776 43.5109 14.776H40.6829C40.4216 14.776 40.2909 14.636 40.2909 14.356V1.14C40.2909 0.859998 40.4216 0.719999 40.6829 0.719999H43.5109C43.6229 0.719999 43.7256 0.757332 43.8189 0.831999C43.9123 0.906666 43.9589 1.00933 43.9589 1.14V5.648H46.9269ZM27.7189 9.988C27.7189 10.8653 28.1109 11.304 28.8949 11.304H37.7709C37.8456 11.304 37.9203 11.332 37.9949 11.388C38.0696 11.444 38.1069 11.5187 38.1069 11.612V13.936C38.1069 14.0107 38.0696 14.0853 37.9949 14.16C37.9203 14.216 37.8456 14.244 37.7709 14.244H27.6629C26.5429 14.244 25.6563 13.9453 25.0029 13.348C24.3683 12.7507 24.0509 11.92 24.0509 10.856V4.08C24.0509 3.296 24.2843 2.68 24.7509 2.232C25.2363 1.784 25.8989 1.56 26.7389 1.56H36.2029C36.2776 1.56 36.3523 1.59733 36.4269 1.672C36.5016 1.728 36.5389 1.79333 36.5389 1.868V4.192C36.5389 4.28533 36.5016 4.36 36.4269 4.416C36.3523 4.472 36.2776 4.5 36.2029 4.5H29.1189C28.5216 4.5 28.1389 4.62133 27.9709 4.864C27.8029 5.10667 27.7189 5.508 27.7189 6.068V9.988ZM69.0859 20.04C69.2725 20.04 69.3659 20.1427 69.3659 20.348V22.644C69.3659 22.868 69.2725 22.98 69.0859 22.98H48.6459C48.4032 22.98 48.2819 22.868 48.2819 22.644V20.348C48.2819 20.1427 48.4032 20.04 48.6459 20.04H56.9619V15.644H53.8259C52.7059 15.644 51.8192 15.3453 51.1659 14.748C50.5312 14.132 50.2139 13.292 50.2139 12.228V4.64C50.2139 3.856 50.4472 3.24 50.9139 2.792C51.3992 2.344 52.0619 2.12 52.9019 2.12H67.0699C67.1445 2.12 67.2192 2.15733 67.2939 2.232C67.3685 2.288 67.4059 2.35333 67.4059 2.428V4.808C67.4059 4.90133 67.3685 4.976 67.2939 5.032C67.2192 5.088 67.1445 5.116 67.0699 5.116H55.4499C54.8525 5.116 54.4419 5.256 54.2179 5.536C53.9939 5.79733 53.8819 6.208 53.8819 6.768V7.692H66.8179C67.0045 7.692 67.0979 7.804 67.0979 8.028V10.156C67.0979 10.3427 67.0045 10.436 66.8179 10.436H53.8819V10.828C53.8819 11.4813 54.0405 11.948 54.3579 12.228C54.6939 12.508 55.1979 12.648 55.8699 12.648H67.0979C67.1725 12.648 67.2379 12.6853 67.2939 12.76C67.3685 12.816 67.4059 12.8907 67.4059 12.984V15.308C67.4059 15.4013 67.3685 15.4853 67.2939 15.56C67.2379 15.616 67.1725 15.644 67.0979 15.644H60.6299V20.04H69.0859ZM75.9568 19.984C75.8821 19.984 75.8075 19.956 75.7328 19.9C75.6768 19.8253 75.6488 19.7413 75.6488 19.648V17.38C75.6488 17.2867 75.6768 17.212 75.7328 17.156C75.8075 17.0813 75.8821 17.044 75.9568 17.044H88.5288C89.6488 17.044 90.5261 17.352 91.1608 17.968C91.8141 18.5653 92.1408 19.396 92.1408 20.46V25.64C92.1408 25.7333 92.1035 25.8267 92.0288 25.92C91.9541 26.0133 91.8421 26.06 91.6928 26.06H88.9208C88.7901 26.06 88.6781 26.0133 88.5848 25.92C88.5101 25.8267 88.4728 25.7333 88.4728 25.64V21.804C88.4728 21.1507 88.3048 20.684 87.9688 20.404C87.6515 20.124 87.1568 19.984 86.4848 19.984H75.9568ZM95.1088 5.648C95.3701 5.648 95.5008 5.79733 95.5008 6.096V7.748C95.5008 7.84133 95.4635 7.93467 95.3888 8.028C95.3141 8.10267 95.2208 8.14 95.1088 8.14H92.1408V14.356C92.1408 14.4867 92.0941 14.5893 92.0008 14.664C91.9075 14.7387 91.8048 14.776 91.6928 14.776H88.8648C88.6035 14.776 88.4728 14.636 88.4728 14.356V1.14C88.4728 0.859998 88.6035 0.719999 88.8648 0.719999H91.6928C91.8048 0.719999 91.9075 0.757332 92.0008 0.831999C92.0941 0.906666 92.1408 1.00933 92.1408 1.14V5.648H95.1088ZM75.9008 9.988C75.9008 10.8653 76.2928 11.304 77.0768 11.304H85.9528C86.0275 11.304 86.1021 11.332 86.1768 11.388C86.2515 11.444 86.2888 11.5187 86.2888 11.612V13.936C86.2888 14.0107 86.2515 14.0853 86.1768 14.16C86.1021 14.216 86.0275 14.244 85.9528 14.244H75.8448C74.7248 14.244 73.8381 13.9453 73.1848 13.348C72.5501 12.7507 72.2328 11.92 72.2328 10.856V4.08C72.2328 3.296 72.4661 2.68 72.9328 2.232C73.4181 1.784 74.0808 1.56 74.9208 1.56H84.3848C84.4595 1.56 84.5341 1.59733 84.6088 1.672C84.6835 1.728 84.7208 1.79333 84.7208 1.868V4.192C84.7208 4.28533 84.6835 4.36 84.6088 4.416C84.5341 4.472 84.4595 4.5 84.3848 4.5H77.3008C76.7035 4.5 76.3208 4.62133 76.1528 4.864C75.9848 5.10667 75.9008 5.508 75.9008 6.068V9.988Z" fill="#655004"/>
</svg>
