<svg width="165" height="44" viewBox="0 0 165 44" fill="none" xmlns="http://www.w3.org/2000/svg">
<path d="M36.264 33.64C36.584 33.64 36.744 33.816 36.744 34.168V38.104C36.744 38.488 36.584 38.68 36.264 38.68H1.224C0.808 38.68 0.6 38.488 0.6 38.104V34.168C0.6 33.816 0.808 33.64 1.224 33.64H15.48V26.104H10.104C8.184 26.104 6.664 25.592 5.544 24.568C4.456 23.512 3.912 22.072 3.912 20.248V7.24C3.912 5.896 4.312 4.84 5.112 4.072C5.944 3.304 7.08 2.92 8.52 2.92H32.808C32.936 2.92 33.064 2.984 33.192 3.112C33.32 3.208 33.384 3.32 33.384 3.448V7.528C33.384 7.688 33.32 7.816 33.192 7.912C33.064 8.008 32.936 8.056 32.808 8.056H12.888C11.864 8.056 11.16 8.296 10.776 8.776C10.392 9.224 10.2 9.928 10.2 10.888V12.472H32.376C32.696 12.472 32.856 12.664 32.856 13.048V16.696C32.856 17.016 32.696 17.176 32.376 17.176H10.2V17.848C10.2 18.968 10.472 19.768 11.016 20.248C11.592 20.728 12.456 20.968 13.608 20.968H32.856C32.984 20.968 33.096 21.032 33.192 21.16C33.32 21.256 33.384 21.384 33.384 21.544V25.528C33.384 25.688 33.32 25.832 33.192 25.96C33.096 26.056 32.984 26.104 32.856 26.104H21.768V33.64H36.264ZM48.0428 33.544C47.9148 33.544 47.7868 33.496 47.6588 33.4C47.5628 33.272 47.5148 33.128 47.5148 32.968V29.08C47.5148 28.92 47.5628 28.792 47.6588 28.696C47.7868 28.568 47.9148 28.504 48.0428 28.504H69.5948C71.5148 28.504 73.0188 29.032 74.1068 30.088C75.2268 31.112 75.7868 32.536 75.7868 34.36V43.24C75.7868 43.4 75.7228 43.56 75.5948 43.72C75.4668 43.88 75.2748 43.96 75.0188 43.96H70.2668C70.0428 43.96 69.8508 43.88 69.6908 43.72C69.5628 43.56 69.4988 43.4 69.4988 43.24V36.664C69.4988 35.544 69.2108 34.744 68.6348 34.264C68.0908 33.784 67.2428 33.544 66.0908 33.544H48.0428ZM80.8748 8.968C81.3228 8.968 81.5468 9.224 81.5468 9.736V12.568C81.5468 12.728 81.4828 12.888 81.3548 13.048C81.2268 13.176 81.0668 13.24 80.8748 13.24H75.7868V23.896C75.7868 24.12 75.7068 24.296 75.5468 24.424C75.3868 24.552 75.2108 24.616 75.0188 24.616H70.1708C69.7228 24.616 69.4988 24.376 69.4988 23.896V1.24C69.4988 0.759997 69.7228 0.519998 70.1708 0.519998H75.0188C75.2108 0.519998 75.3868 0.583998 75.5468 0.711998C75.7068 0.839998 75.7868 1.016 75.7868 1.24V8.968H80.8748ZM47.9468 16.408C47.9468 17.912 48.6188 18.664 49.9628 18.664H65.1788C65.3068 18.664 65.4348 18.712 65.5628 18.808C65.6908 18.904 65.7548 19.032 65.7548 19.192V23.176C65.7548 23.304 65.6908 23.432 65.5628 23.56C65.4348 23.656 65.3068 23.704 65.1788 23.704H47.8508C45.9308 23.704 44.4108 23.192 43.2908 22.168C42.2028 21.144 41.6588 19.72 41.6588 17.896V6.28C41.6588 4.936 42.0588 3.88 42.8588 3.112C43.6908 2.344 44.8268 1.96 46.2668 1.96H62.4908C62.6188 1.96 62.7468 2.024 62.8748 2.152C63.0028 2.248 63.0668 2.36 63.0668 2.488V6.472C63.0668 6.632 63.0028 6.76 62.8748 6.856C62.7468 6.952 62.6188 7 62.4908 7H50.3468C49.3228 7 48.6668 7.208 48.3788 7.624C48.0908 8.04 47.9468 8.728 47.9468 9.688V16.408ZM118.862 33.64C119.182 33.64 119.342 33.816 119.342 34.168V38.104C119.342 38.488 119.182 38.68 118.862 38.68H83.8215C83.4055 38.68 83.1975 38.488 83.1975 38.104V34.168C83.1975 33.816 83.4055 33.64 83.8215 33.64H98.0775V26.104H92.7015C90.7815 26.104 89.2615 25.592 88.1415 24.568C87.0535 23.512 86.5095 22.072 86.5095 20.248V7.24C86.5095 5.896 86.9095 4.84 87.7095 4.072C88.5415 3.304 89.6775 2.92 91.1175 2.92H115.406C115.534 2.92 115.662 2.984 115.79 3.112C115.918 3.208 115.982 3.32 115.982 3.448V7.528C115.982 7.688 115.918 7.816 115.79 7.912C115.662 8.008 115.534 8.056 115.406 8.056H95.4855C94.4615 8.056 93.7575 8.296 93.3735 8.776C92.9895 9.224 92.7975 9.928 92.7975 10.888V12.472H114.974C115.294 12.472 115.454 12.664 115.454 13.048V16.696C115.454 17.016 115.294 17.176 114.974 17.176H92.7975V17.848C92.7975 18.968 93.0695 19.768 93.6135 20.248C94.1895 20.728 95.0535 20.968 96.2055 20.968H115.454C115.582 20.968 115.694 21.032 115.79 21.16C115.918 21.256 115.982 21.384 115.982 21.544V25.528C115.982 25.688 115.918 25.832 115.79 25.96C115.694 26.056 115.582 26.104 115.454 26.104H104.366V33.64H118.862ZM130.64 33.544C130.512 33.544 130.384 33.496 130.256 33.4C130.16 33.272 130.112 33.128 130.112 32.968V29.08C130.112 28.92 130.16 28.792 130.256 28.696C130.384 28.568 130.512 28.504 130.64 28.504H152.192C154.112 28.504 155.616 29.032 156.704 30.088C157.824 31.112 158.384 32.536 158.384 34.36V43.24C158.384 43.4 158.32 43.56 158.192 43.72C158.064 43.88 157.872 43.96 157.616 43.96H152.864C152.64 43.96 152.448 43.88 152.288 43.72C152.16 43.56 152.096 43.4 152.096 43.24V36.664C152.096 35.544 151.808 34.744 151.232 34.264C150.688 33.784 149.84 33.544 148.688 33.544H130.64ZM163.472 8.968C163.92 8.968 164.144 9.224 164.144 9.736V12.568C164.144 12.728 164.08 12.888 163.952 13.048C163.824 13.176 163.664 13.24 163.472 13.24H158.384V23.896C158.384 24.12 158.304 24.296 158.144 24.424C157.984 24.552 157.808 24.616 157.616 24.616H152.768C152.32 24.616 152.096 24.376 152.096 23.896V1.24C152.096 0.759997 152.32 0.519998 152.768 0.519998H157.616C157.808 0.519998 157.984 0.583998 158.144 0.711998C158.304 0.839998 158.384 1.016 158.384 1.24V8.968H163.472ZM130.544 16.408C130.544 17.912 131.216 18.664 132.56 18.664H147.776C147.904 18.664 148.032 18.712 148.16 18.808C148.288 18.904 148.352 19.032 148.352 19.192V23.176C148.352 23.304 148.288 23.432 148.16 23.56C148.032 23.656 147.904 23.704 147.776 23.704H130.448C128.528 23.704 127.008 23.192 125.888 22.168C124.8 21.144 124.256 19.72 124.256 17.896V6.28C124.256 4.936 124.656 3.88 125.456 3.112C126.288 2.344 127.424 1.96 128.864 1.96H145.088C145.216 1.96 145.344 2.024 145.472 2.152C145.6 2.248 145.664 2.36 145.664 2.488V6.472C145.664 6.632 145.6 6.76 145.472 6.856C145.344 6.952 145.216 7 145.088 7H132.944C131.92 7 131.264 7.208 130.976 7.624C130.688 8.04 130.544 8.728 130.544 9.688V16.408Z" fill="#FFDA57"/>
</svg>
