<svg width="22" height="16" viewBox="0 0 22 16" fill="none" xmlns="http://www.w3.org/2000/svg">
<path id="Vector" d="M21.8043 8.14818C21.7107 7.9852 21.5854 7.84233 21.4355 7.72791C21.2857 7.6135 21.1143 7.52984 20.9315 7.48182C20.2683 7.31252 19.5829 7.24446 18.8989 7.28C19.2657 5.47545 18.9906 4.04818 18.7101 3.20182C18.5982 2.85415 18.3599 2.56024 18.0414 2.37738C17.7229 2.19452 17.3471 2.13582 16.9874 2.21273C16.0544 2.41869 15.1674 2.79211 14.3699 3.31455C13.7858 2.13153 12.9354 1.09736 11.8844 0.291818C11.6297 0.102396 11.3199 0 11.0016 0C10.6832 0 10.3734 0.102396 10.1187 0.291818C9.06743 1.09713 8.21703 2.13135 7.6332 3.31455C6.83574 2.79211 5.94866 2.41869 5.01571 2.21273C4.65596 2.13582 4.28021 2.19452 3.96173 2.37738C3.64325 2.56024 3.40486 2.85415 3.29303 3.20182C3.01799 4.04818 2.74295 5.47455 3.10417 7.28C2.42024 7.24446 1.73485 7.31252 1.07161 7.48182C0.888785 7.52984 0.717442 7.6135 0.567586 7.72791C0.41773 7.84233 0.292364 7.9852 0.198807 8.14818C0.100897 8.31514 0.0375001 8.49976 0.0123148 8.69128C-0.0128705 8.88279 0.000660402 9.07736 0.0521182 9.26364C0.362916 10.4064 1.31731 12.58 4.20801 14.2927C7.0987 16.0055 9.63826 16 11.0061 16C12.374 16 14.9182 16 17.7905 14.2927C20.6812 12.58 21.6356 10.4064 21.9464 9.26364C21.9985 9.07766 22.0128 8.88325 21.9884 8.69174C21.964 8.50024 21.9014 8.31546 21.8043 8.14818ZM4.68841 3.64909C4.68951 3.64458 4.6923 3.64065 4.69622 3.63812C4.70014 3.63558 4.70489 3.63463 4.7095 3.63545C5.5626 3.82647 6.36766 4.18741 7.07578 4.69636C6.75341 5.74234 6.59327 6.83084 6.60087 7.92455C6.60087 9.62818 6.94651 11.0155 7.43609 12.1318C6.7401 11.4411 6.13788 10.6633 5.64464 9.81818C3.99256 6.96546 4.33636 4.72727 4.68841 3.64909ZM4.96346 13.0445C2.51833 11.5973 1.72529 9.82273 1.46675 8.88182C2.14135 8.71708 2.84138 8.68099 3.52957 8.77545C3.75929 9.38572 4.03989 9.97594 4.36845 10.54C5.17514 11.919 6.23194 13.1383 7.48559 14.1364C6.59912 13.8836 5.74993 13.5165 4.95979 13.0445H4.96346ZM11.0016 14.4C10.1462 13.7691 8.06777 11.8336 8.06777 7.92455C8.06777 4.06364 10.1196 2.11273 11.0016 1.45455C11.8835 2.11455 13.9353 4.06545 13.9353 7.92636C13.9353 11.8336 11.8569 13.7691 11.0016 14.4ZM14.9273 4.69636C15.6355 4.18773 16.4406 3.8271 17.2936 3.63636C17.2982 3.63554 17.303 3.63649 17.3069 3.63903C17.3108 3.64156 17.3136 3.64549 17.3147 3.65C17.6667 4.72727 18.0105 6.96546 16.3585 9.81818C15.8657 10.6644 15.2634 11.4432 14.567 12.1345C15.0566 11.02 15.4022 9.63091 15.4022 7.92727C15.4101 6.83265 15.25 5.74322 14.9273 4.69636ZM20.5364 8.88364C20.2824 9.81545 19.4912 11.5936 17.0442 13.0445C16.254 13.5162 15.4049 13.8829 14.5184 14.1355C15.7721 13.1374 16.8289 11.9181 17.6356 10.5391C17.9641 9.97503 18.2447 9.38481 18.4744 8.77455C19.1624 8.68057 19.8622 8.71728 20.5364 8.88273V8.88364Z" fill="#FFDA57"/>
</svg>
