<svg width="35" height="35" viewBox="0 0 35 35" fill="none" xmlns="http://www.w3.org/2000/svg">
<g id="bx:search">
<path id="Vector" d="M14.5834 26.25C17.1719 26.2495 19.6858 25.3829 21.7249 23.7883L28.1357 30.1992L30.1978 28.1371L23.787 21.7262C25.3824 19.687 26.2495 17.1725 26.2501 14.5833C26.2501 8.15062 21.0161 2.91666 14.5834 2.91666C8.15071 2.91666 2.91675 8.15062 2.91675 14.5833C2.91675 21.016 8.15071 26.25 14.5834 26.25ZM14.5834 5.83332C19.409 5.83332 23.3334 9.7577 23.3334 14.5833C23.3334 19.4089 19.409 23.3333 14.5834 23.3333C9.75779 23.3333 5.83341 19.4089 5.83341 14.5833C5.83341 9.7577 9.75779 5.83332 14.5834 5.83332Z" fill="#787878"/>
</g>
</svg>
