<svg width="70" height="70" viewBox="0 0 70 70" fill="none" xmlns="http://www.w3.org/2000/svg">
<g id="&#237;&#148;&#132;&#236;&#130;&#172;">
<circle id="Ellipse 68" cx="35" cy="35" r="35" fill="url(#paint0_linear_511_24430)"/>
<path id="Vector" d="M42.2612 36.1656C45.0545 37.4916 47.4362 39.5572 49.1509 42.141C50.8657 44.7247 51.8488 47.7291 51.995 50.832C52.0144 51.1163 51.9773 51.4015 51.8856 51.6711C51.794 51.9407 51.6497 52.1891 51.4613 52.4019C51.2728 52.6146 51.0441 52.7874 50.7883 52.91C50.5326 53.0326 50.2551 53.1026 49.9722 53.1159C49.6892 53.1292 49.4064 53.0855 49.1404 52.9874C48.8745 52.8893 48.6307 52.7388 48.4233 52.5447C48.216 52.3505 48.0493 52.1167 47.9331 51.8569C47.8168 51.5971 47.7534 51.3165 47.7464 51.0317C47.5918 47.7359 46.1811 44.6267 43.8072 42.3493C41.4333 40.0719 38.2786 38.8013 34.9978 38.8013C31.717 38.8013 28.5623 40.0719 26.1884 42.3493C23.8145 44.6267 22.4038 47.7359 22.2492 51.0317C22.211 51.5896 21.9571 52.1102 21.5419 52.4821C21.1267 52.854 20.5833 53.0477 20.0278 53.0216C19.4724 52.9955 18.9493 52.7517 18.5704 52.3425C18.1915 51.9332 17.987 51.391 18.0006 50.832C18.1465 47.7294 19.1292 44.7252 20.8435 42.1415C22.5577 39.5578 24.9388 37.492 27.7315 36.1656C25.942 34.6644 24.6556 32.6452 24.0475 30.3827C23.4394 28.1203 23.539 25.7244 24.3329 23.5209C25.1267 21.3174 26.5762 19.4133 28.4842 18.0676C30.3921 16.7219 32.666 16 34.9964 16C37.3268 16 39.6006 16.7219 41.5086 18.0676C43.4166 19.4133 44.8661 21.3174 45.6599 23.5209C46.4538 25.7244 46.5534 28.1203 45.9453 30.3827C45.3372 32.6452 44.0508 34.6644 42.2612 36.1656ZM42.0882 27.4005C42.0882 25.5093 41.3412 23.6955 40.0115 22.3583C38.6818 21.021 36.8783 20.2697 34.9978 20.2697C33.1173 20.2697 31.3138 21.021 29.9841 22.3583C28.6544 23.6955 27.9074 25.5093 27.9074 27.4005C27.9074 29.2916 28.6544 31.1054 29.9841 32.4426C31.3138 33.7799 33.1173 34.5312 34.9978 34.5312C36.8783 34.5312 38.6818 33.7799 40.0115 32.4426C41.3412 31.1054 42.0882 29.2916 42.0882 27.4005Z" fill="white"/>
</g>
<defs>
<linearGradient id="paint0_linear_511_24430" x1="35" y1="0" x2="35" y2="70" gradientUnits="userSpaceOnUse">
<stop stop-color="#FFF9E4"/>
<stop offset="1" stop-color="#FFDA57"/>
</linearGradient>
</defs>
</svg>
