<svg width="79" height="49" viewBox="0 0 79 49" fill="none" xmlns="http://www.w3.org/2000/svg">
<path id="Vector" d="M65.7317 27.0575C69.8906 32.0721 72.9178 37.9934 74.5702 44.2773C75.8964 43.3707 77.2155 42.2966 78.5 41.0273C75.5284 26.0392 65.579 13.9316 52.5885 9.02859C50.5265 8.37299 44.5763 6.80374 37.1194 7.71739L36.8695 5.63901C42.9238 4.89972 47.9714 5.68086 51.0125 6.41318C50.089 3.79777 48.388 0.645325 45.5205 0.645325C33.5021 0.652299 18.7342 12.3833 13.1104 17.9698H13.1451C7.12546 23.9608 2.77217 31.9675 0.973919 41.0342V41.0133C0.973919 41.0133 0.661482 42.3803 0.54345 43.5102C0.418475 44.7446 0.515678 45.6931 1.47382 44.2773C1.53631 44.1797 1.60574 44.0821 1.67517 43.9635L1.66128 43.9007C5.20224 37.0239 14.2004 32.1418 24.74 32.1418C33.641 32.1418 41.4311 35.6221 45.7774 40.8459C49.0962 44.8353 53.4703 47.5623 58.1916 48.3853C56.5183 43.6357 54.0119 39.179 50.7903 35.2943L52.3872 33.9552C55.9768 38.2863 58.7262 43.2939 60.4689 48.6294C61.316 48.6643 62.163 48.6433 63.0239 48.5527C63.9682 48.455 64.9194 48.3016 65.8845 48.0854C64.3223 42.0595 61.434 36.3683 57.4487 31.563L59.0525 30.2239C63.2322 35.2664 66.2733 41.2225 67.9118 47.5414C69.4949 47.0392 71.0918 46.3627 72.6817 45.463C71.1543 39.2418 68.2173 33.3624 64.114 28.4105L65.7109 27.0714L65.7317 27.0575Z" fill="#3D4C00"/>
</svg>
