<svg width="26" height="30" viewBox="0 0 26 30" fill="none" xmlns="http://www.w3.org/2000/svg">
<g id="fa6-solid:ribbon">
<path id="Vector" d="M19.3375 18.9141L11.5665 10.3594L8.47322 6.94922C8.9259 6.65039 10.6205 5.625 13 5.625C15.3795 5.625 17.0741 6.64453 17.5268 6.94922L14.2594 10.5469L19.2272 16.0195L20.8174 14.2734C21.7634 13.2363 22.2857 11.877 22.2857 10.4648V8.73633C22.2857 7.62305 21.9607 6.53906 21.3513 5.61328L19.0241 2.08594C18.1594 0.785156 16.7085 0 15.1589 0H10.7482C9.2509 0 7.84063 0.732422 6.97009 1.96289L4.75313 5.09766C4.07992 6.04687 3.71429 7.19531 3.71429 8.36719V9.60937C3.71429 10.9687 4.20179 12.2812 5.08393 13.3066L8.33393 17.0684L13.1683 22.6699L18.496 28.8398C19.0763 29.5137 20.0513 29.6777 20.8174 29.2383L23.9804 27.416C25.0134 26.8184 25.2339 25.4062 24.4272 24.5215L19.3375 18.9141ZM11.9089 24.0586L7.07456 18.457L1.57277 24.5215C0.766078 25.4062 0.986613 26.8184 2.01965 27.416L5.21742 29.2617C5.97188 29.6953 6.91786 29.5488 7.50402 28.9043L11.9089 24.0645V24.0586Z" fill="#1D1D1D"/>
</g>
</svg>
