<svg width="36" height="45" viewBox="0 0 36 45" fill="none" xmlns="http://www.w3.org/2000/svg">
<path d="M27.5731 28.8429L15.8347 15.7975L11.1621 10.5972C11.8459 10.1415 14.4057 8.57782 18 8.57782C21.5943 8.57782 24.1541 10.1325 24.8379 10.5972L19.9023 16.0834L27.4065 24.4289L29.8085 21.7662C31.2375 20.1847 32.0265 18.1117 32.0265 15.9583V13.3224C32.0265 11.6247 31.5356 9.97171 30.6151 8.55995L27.0997 3.18094C25.7935 1.19732 23.6018 0 21.2612 0H14.5986C12.3368 0 10.2065 1.1169 8.89155 2.9933L5.54273 7.77365C4.52581 9.22115 3.97352 10.9725 3.97352 12.7595V14.6538C3.97352 16.7267 4.70991 18.7282 6.04242 20.2919L10.9517 26.0283L18.2542 34.5704L26.3019 43.9792C27.1786 45.0067 28.6514 45.2569 29.8085 44.5868L34.5863 41.8079C36.1468 40.8965 36.4799 38.7431 35.2613 37.3939L27.5731 28.8429ZM16.3519 36.688L9.04935 28.146L0.738661 37.3939C-0.47989 38.7431 -0.146761 40.8965 1.41369 41.8079L6.24405 44.6225C7.38371 45.2837 8.81265 45.0603 9.69808 44.0775L16.3519 36.697V36.688Z" fill="#1D1D1D"/>
</svg>
