<svg width="60" height="37" viewBox="0 0 60 37" fill="none" xmlns="http://www.w3.org/2000/svg">
<g id="Layer_3" clip-path="url(#clip0_340_236)">
<path id="Vector" d="M50.178 20.3608C53.3772 24.2275 55.7059 28.7933 56.977 33.6388C57.9971 32.9397 59.0119 32.1115 60 31.1327C57.7141 19.5756 50.0605 10.2395 40.0676 6.45887C38.4814 5.95335 33.9042 4.74332 28.168 5.44783L27.9758 3.84521C32.6331 3.27515 36.5159 3.87748 38.8552 4.44216C38.1449 2.42544 36.8364 -0.00537109 34.6306 -0.00537109C25.3854 6.81309e-06 14.0253 9.04565 9.6991 13.3534H9.72581C5.09522 17.973 1.74646 24.1468 0.363158 31.1381V31.122C0.363158 31.122 0.122816 32.176 0.0320201 33.0472C-0.0641166 33.9991 0.0106564 34.7305 0.747705 33.6388C0.795773 33.5635 0.849182 33.4882 0.902592 33.3968L0.89191 33.3484C3.61578 28.0458 10.5376 24.2813 18.6452 24.2813C25.4922 24.2813 31.4848 26.9648 34.8282 30.9929C37.3811 34.069 40.7459 36.1718 44.3778 36.8064C43.0906 33.1441 41.1625 29.7076 38.6843 26.7121L39.9127 25.6795C42.674 29.0192 44.789 32.8805 46.1296 36.9946C46.7812 37.0215 47.4328 37.0054 48.095 36.9355C48.8214 36.8602 49.5531 36.7419 50.2955 36.5752C49.0938 31.9286 46.872 27.5403 43.8063 23.8349L45.04 22.8023C48.2553 26.6906 50.5946 31.2833 51.8551 36.1557C53.0728 35.7685 54.3012 35.2468 55.5243 34.5531C54.3493 29.756 52.0901 25.2224 48.9336 21.4041L50.162 20.3715L50.178 20.3608Z" fill="#FFDA57"/>
</g>
<defs>
<clipPath id="clip0_340_236">
<rect width="60" height="37" fill="white"/>
</clipPath>
</defs>
</svg>
