<svg width="89" height="84" viewBox="0 0 89 84" fill="none" xmlns="http://www.w3.org/2000/svg">
<g id="&#235;&#161;&#156;&#234;&#179;&#160;">
<g id="&#237;&#134;&#160;&#235;&#139;&#165;&#237;&#134;&#160;&#235;&#139;&#165;">
<path id="Vector" d="M70.154 77.4323C70.0849 77.4323 70.0159 77.4064 69.9468 77.3546C69.895 77.2856 69.8691 77.2079 69.8691 77.1216V75.0241C69.8691 74.9378 69.895 74.8687 69.9468 74.8169C70.0159 74.7479 70.0849 74.7134 70.154 74.7134H81.7808C82.8166 74.7134 83.628 74.9982 84.215 75.5679C84.8192 76.1203 85.1213 76.8885 85.1213 77.8725V82.6631C85.1213 82.7494 85.0868 82.8357 85.0177 82.9221C84.9487 83.0084 84.8451 83.0515 84.707 83.0515H82.1434C82.0225 83.0515 81.919 83.0084 81.8326 82.9221C81.7636 82.8357 81.7291 82.7494 81.7291 82.6631V79.1155C81.7291 78.5113 81.5737 78.0797 81.2629 77.8208C80.9695 77.5618 80.512 77.4323 79.8905 77.4323H70.154ZM87.8662 64.1741C88.1078 64.1741 88.2287 64.3122 88.2287 64.5884V66.1162C88.2287 66.2025 88.1942 66.2889 88.1251 66.3752C88.0561 66.4442 87.9697 66.4787 87.8662 66.4787H85.1213V72.2274C85.1213 72.3483 85.0781 72.4432 84.9918 72.5123C84.9055 72.5813 84.8106 72.6159 84.707 72.6159H82.0916C81.8499 72.6159 81.7291 72.4864 81.7291 72.2274V60.005C81.7291 59.7461 81.8499 59.6166 82.0916 59.6166H84.707C84.8106 59.6166 84.9055 59.6511 84.9918 59.7202C85.0781 59.7892 85.1213 59.8842 85.1213 60.005V64.1741H87.8662ZM70.1022 68.1878C70.1022 68.9992 70.4647 69.4049 71.1898 69.4049H79.3985C79.4676 69.4049 79.5366 69.4308 79.6057 69.4826C79.6747 69.5344 79.7092 69.6034 79.7092 69.6897V71.839C79.7092 71.9081 79.6747 71.9771 79.6057 72.0462C79.5366 72.098 79.4676 72.1239 79.3985 72.1239H70.0504C69.0146 72.1239 68.1946 71.8476 67.5904 71.2952C67.0034 70.7428 66.71 69.9746 66.71 68.9906V62.724C66.71 61.9989 66.9258 61.4292 67.3573 61.0149C67.8062 60.6006 68.419 60.3934 69.1959 60.3934H77.9484C78.0174 60.3934 78.0865 60.428 78.1555 60.497C78.2246 60.5488 78.2591 60.6092 78.2591 60.6783V62.8276C78.2591 62.9139 78.2246 62.9829 78.1555 63.0347C78.0865 63.0865 78.0174 63.1124 77.9484 63.1124H71.397C70.8445 63.1124 70.4906 63.2246 70.3353 63.449C70.1799 63.6735 70.1022 64.0446 70.1022 64.5625V68.1878Z" fill="#3D4C00"/>
<path id="Vector_2" d="M63.7995 77.4841C63.9722 77.4841 64.0585 77.579 64.0585 77.7689V79.8923C64.0585 80.0995 63.9722 80.2031 63.7995 80.2031H44.8962C44.6718 80.2031 44.5596 80.0995 44.5596 79.8923V77.7689C44.5596 77.579 44.6718 77.4841 44.8962 77.4841H52.587V73.4186H49.6868C48.651 73.4186 47.831 73.1424 47.2268 72.5899C46.6398 72.0203 46.3463 71.2434 46.3463 70.2594V63.2419C46.3463 62.5168 46.5621 61.9471 46.9937 61.5328C47.4425 61.1185 48.0554 60.9113 48.8322 60.9113H61.9351C62.0042 60.9113 62.0732 60.9458 62.1423 61.0149C62.2113 61.0667 62.2458 61.1271 62.2458 61.1962V63.3972C62.2458 63.4835 62.2113 63.5526 62.1423 63.6044C62.0732 63.6562 62.0042 63.6821 61.9351 63.6821H51.1887C50.6363 63.6821 50.2565 63.8115 50.0493 64.0705C49.8421 64.3122 49.7386 64.692 49.7386 65.2099V66.0644H61.7021C61.8747 66.0644 61.961 66.168 61.961 66.3752V68.3432C61.961 68.5158 61.8747 68.6021 61.7021 68.6021H49.7386V68.9646C49.7386 69.5689 49.8853 70.0004 50.1788 70.2594C50.4895 70.5183 50.9556 70.6478 51.5771 70.6478H61.961C62.0301 70.6478 62.0905 70.6824 62.1423 70.7514C62.2113 70.8032 62.2458 70.8722 62.2458 70.9586V73.1078C62.2458 73.1942 62.2113 73.2718 62.1423 73.3409C62.0905 73.3927 62.0301 73.4186 61.961 73.4186H55.9793V77.4841H63.7995Z" fill="#3D4C00"/>
<path id="Vector_3" d="M25.5944 77.4323C25.5254 77.4323 25.4563 77.4064 25.3873 77.3546C25.3355 77.2856 25.3096 77.2079 25.3096 77.1216V75.0241C25.3096 74.9378 25.3355 74.8687 25.3873 74.8169C25.4563 74.7479 25.5254 74.7134 25.5944 74.7134H37.2213C38.2571 74.7134 39.0684 74.9982 39.6554 75.5679C40.2596 76.1203 40.5617 76.8885 40.5617 77.8725V82.6631C40.5617 82.7494 40.5272 82.8357 40.4581 82.9221C40.3891 83.0084 40.2855 83.0515 40.1474 83.0515H37.5838C37.463 83.0515 37.3594 83.0084 37.2731 82.9221C37.204 82.8357 37.1695 82.7494 37.1695 82.6631V79.1155C37.1695 78.5113 37.0141 78.0797 36.7034 77.8208C36.4099 77.5618 35.9524 77.4323 35.3309 77.4323H25.5944ZM43.3066 64.1741C43.5483 64.1741 43.6691 64.3122 43.6691 64.5884V66.1162C43.6691 66.2025 43.6346 66.2889 43.5655 66.3752C43.4965 66.4442 43.4102 66.4787 43.3066 66.4787H40.5617V72.2274C40.5617 72.3483 40.5186 72.4432 40.4322 72.5123C40.3459 72.5813 40.251 72.6159 40.1474 72.6159H37.532C37.2903 72.6159 37.1695 72.4864 37.1695 72.2274V60.005C37.1695 59.7461 37.2903 59.6166 37.532 59.6166H40.1474C40.251 59.6166 40.3459 59.6511 40.4322 59.7202C40.5186 59.7892 40.5617 59.8842 40.5617 60.005V64.1741H43.3066ZM25.5426 68.1878C25.5426 68.9992 25.9052 69.4049 26.6302 69.4049H34.8389C34.908 69.4049 34.977 69.4308 35.0461 69.4826C35.1151 69.5344 35.1497 69.6034 35.1497 69.6897V71.839C35.1497 71.9081 35.1151 71.9771 35.0461 72.0462C34.977 72.098 34.908 72.1239 34.8389 72.1239H25.4908C24.455 72.1239 23.635 71.8476 23.0308 71.2952C22.4439 70.7428 22.1504 69.9746 22.1504 68.9906V62.724C22.1504 61.9989 22.3662 61.4292 22.7978 61.0149C23.2466 60.6006 23.8595 60.3934 24.6363 60.3934H33.3888C33.4579 60.3934 33.5269 60.428 33.596 60.497C33.665 60.5488 33.6996 60.6092 33.6996 60.6783V62.8276C33.6996 62.9139 33.665 62.9829 33.596 63.0347C33.5269 63.0865 33.4579 63.1124 33.3888 63.1124H26.8374C26.285 63.1124 25.9311 63.2246 25.7757 63.449C25.6203 63.6735 25.5426 64.0446 25.5426 64.5625V68.1878Z" fill="#3D4C00"/>
<path id="Vector_4" d="M19.24 77.4841C19.4126 77.4841 19.4989 77.579 19.4989 77.7689V79.8923C19.4989 80.0995 19.4126 80.2031 19.24 80.2031H0.336635C0.112212 80.2031 0 80.0995 0 79.8923V77.7689C0 77.579 0.112212 77.4841 0.336635 77.4841H8.02745V73.4186H5.12721C4.09141 73.4186 3.2714 73.1424 2.66718 72.5899C2.08023 72.0203 1.78675 71.2434 1.78675 70.2594V63.2419C1.78675 62.5168 2.00255 61.9471 2.43413 61.5328C2.88297 61.1185 3.49582 60.9113 4.27267 60.9113H17.3755C17.4446 60.9113 17.5136 60.9458 17.5827 61.0149C17.6517 61.0667 17.6863 61.1271 17.6863 61.1962V63.3972C17.6863 63.4835 17.6517 63.5526 17.5827 63.6044C17.5136 63.6562 17.4446 63.6821 17.3755 63.6821H6.62912C6.07669 63.6821 5.6969 63.8115 5.48974 64.0705C5.28258 64.3122 5.179 64.692 5.179 65.2099V66.0644H17.1425C17.3151 66.0644 17.4014 66.168 17.4014 66.3752V68.3432C17.4014 68.5158 17.3151 68.6021 17.1425 68.6021H5.179V68.9646C5.179 69.5689 5.32574 70.0004 5.61921 70.2594C5.92995 70.5183 6.39606 70.6478 7.01754 70.6478H17.4014C17.4705 70.6478 17.5309 70.6824 17.5827 70.7514C17.6517 70.8032 17.6863 70.8722 17.6863 70.9586V73.1078C17.6863 73.1942 17.6517 73.2718 17.5827 73.3409C17.5309 73.3927 17.4705 73.4186 17.4014 73.4186H11.4197V77.4841H19.24Z" fill="#3D4C00"/>
</g>
<path id="Vector_5" d="M70.2317 26.4122C74.3906 31.4268 77.4178 37.3481 79.0702 43.632C80.3964 42.7253 81.7155 41.6513 83 40.3819C80.0284 25.3939 70.079 13.2863 57.0885 8.38326C55.0265 7.72766 49.0763 6.15842 41.6194 7.07207L41.3695 4.99369C47.4238 4.2544 52.4714 5.03554 55.5125 5.76785C54.589 3.15244 52.888 0 50.0205 0C38.0021 0.00697443 23.2342 11.738 17.6104 17.3245H17.6451C11.6255 23.3155 7.27217 31.3221 5.47392 40.3889V40.368C5.47392 40.368 5.16148 41.735 5.04345 42.8648C4.91848 44.0993 5.01568 45.0478 5.97382 43.632C6.03631 43.5344 6.10574 43.4367 6.17517 43.3182L6.16128 43.2554C9.70224 36.3786 18.7004 31.4965 29.24 31.4965C38.141 31.4965 45.9311 34.9767 50.2774 40.2006C53.5962 44.19 57.9703 46.917 62.6916 47.74C61.0183 42.9904 58.5119 38.5337 55.2903 34.6489L56.8872 33.3099C60.4768 37.641 63.2262 42.6486 64.9689 47.9841C65.816 48.0189 66.663 47.998 67.5239 47.9073C68.4682 47.8097 69.4194 47.6563 70.3845 47.4401C68.8223 41.4141 65.934 35.723 61.9487 30.9176L63.5525 29.5785C67.7322 34.6211 70.7733 40.5772 72.4118 46.896C73.9949 46.3939 75.5918 45.7174 77.1817 44.8177C75.6543 38.5965 72.7173 32.717 68.614 27.7652L70.2109 26.4261L70.2317 26.4122Z" fill="#3D4C00"/>
</g>
</svg>
