<svg width="60" height="38" viewBox="0 0 60 38" fill="none" xmlns="http://www.w3.org/2000/svg">
<path id="Vector" d="M50.1794 20.3661C53.3786 24.2328 55.7073 28.7987 56.9784 33.6442C57.9985 32.9451 59.0133 32.1169 60.0014 31.1381C57.7155 19.581 50.0619 10.2449 40.069 6.46424C38.4828 5.95872 33.9056 4.74869 28.1694 5.4532L27.9772 3.85058C32.6345 3.28052 36.5173 3.88285 38.8566 4.44753C38.1463 2.43081 36.8378 0 34.632 0C25.3868 0.00537791 14.0267 9.05102 9.70051 13.3587H9.72721C5.09662 17.9783 1.74786 24.1522 0.364562 31.1435V31.1273C0.364562 31.1273 0.12422 32.1814 0.0334239 33.0526C-0.0627128 34.0045 0.0120602 34.7359 0.749108 33.6442C0.797177 33.5689 0.850586 33.4936 0.903996 33.4022L0.893314 33.3538C3.61719 28.0512 10.539 24.2866 18.6466 24.2866C25.4936 24.2866 31.4862 26.9702 34.8296 30.9983C37.3825 34.0744 40.7473 36.1772 44.3792 36.8118C43.092 33.1494 41.1639 29.7129 38.6857 26.7174L39.9141 25.6849C42.6754 29.0246 44.7904 32.8859 46.131 37C46.7826 37.0269 47.4342 37.0108 48.0965 36.9408C48.8228 36.8656 49.5545 36.7472 50.2969 36.5805C49.0952 31.934 46.8734 27.5456 43.8077 23.8403L45.0414 22.8077C48.2567 26.6959 50.596 31.2887 51.8565 36.161C53.0742 35.7738 54.3026 35.2522 55.5257 34.5584C54.3507 29.7613 52.0915 25.2278 48.935 21.4094L50.1634 20.3769L50.1794 20.3661Z" fill="#655004"/>
</svg>
