<svg width="20" height="20" viewBox="0 0 20 20" fill="none" xmlns="http://www.w3.org/2000/svg">
<g id="mingcute:quill-pen-line" clip-path="url(#clip0_801_27234)">
<g id="Group">
<path id="Vector" fill-rule="evenodd" clip-rule="evenodd" d="M4.75667 11.125C5.2775 9.52501 6.215 7.47584 7.8875 5.80334C11.1658 2.52501 15.9308 2.04084 16.0517 2.02834C16.205 2.0125 16.3596 2.03947 16.4985 2.10626C16.6374 2.17305 16.755 2.27704 16.8383 2.40667C17.0117 2.66751 17.9883 4.30917 16.6792 6.29251C16.6108 6.3944 16.5338 6.4903 16.4492 6.57917C16.4601 6.68261 16.4517 6.78719 16.4242 6.88751C16.2658 7.46167 16.0625 8.06417 15.7992 8.66667C15.34 9.71917 14.6925 10.7833 13.78 11.6967C12.0717 13.405 9.82833 14.1892 8.07667 14.555C7.28484 14.72 6.48175 14.8253 5.67417 14.87C5.64833 15.075 5.41667 17.1417 5.41667 17.5C5.41667 17.721 5.32887 17.933 5.17259 18.0893C5.01631 18.2455 4.80435 18.3333 4.58333 18.3333C4.36232 18.3333 4.15036 18.2455 3.99408 18.0893C3.8378 17.933 3.75 17.721 3.75 17.5C3.75 17.0242 3.84667 16.1083 3.93417 15.3667C4.105 13.9233 4.30583 12.5108 4.75667 11.125ZM15.2875 5.37501C15.7267 4.70834 15.7208 4.14167 15.6333 3.77501C14.3608 4.00417 11.2842 4.76334 9.06583 6.98251C7.64583 8.40167 6.81583 10.1825 6.34167 11.6408C6.17719 12.1471 6.03977 12.6617 5.93 13.1825C6.53687 13.1353 7.14006 13.049 7.73583 12.9242C9.33583 12.5892 11.2183 11.9008 12.6008 10.5175C13.3092 9.80917 13.8375 8.97001 14.2292 8.09667C13.4158 8.53001 12.5475 8.91834 11.93 9.12417C11.7203 9.19401 11.4914 9.17767 11.2937 9.07875C11.096 8.97982 10.9457 8.80642 10.8758 8.59667C10.806 8.38693 10.8223 8.15804 10.9213 7.96034C11.0202 7.76265 11.1936 7.61235 11.4033 7.54251C11.965 7.35501 12.8683 6.94834 13.6983 6.48834C14.11 6.26001 14.4867 6.02751 14.7825 5.81501C15.1025 5.58501 15.2492 5.43251 15.2875 5.37501Z" fill="#FFDA57"/>
</g>
</g>
<defs>
<clipPath id="clip0_801_27234">
<rect width="20" height="20" fill="white"/>
</clipPath>
</defs>
</svg>
