<svg width="108" height="109" viewBox="0 0 108 109" fill="none" xmlns="http://www.w3.org/2000/svg">
<g id="&#234;&#181;&#173;&#237;&#153;&#148; &#236;&#149;&#132;&#236;&#157;&#180;&#236;&#189;&#152;" clip-path="url(#clip0_503_7361)">
<path id="Vector" d="M46.3816 42.7777C46.9063 42.855 47.4269 42.912 47.9475 42.7818C48.1386 42.7289 48.281 42.8143 48.4152 42.9242C48.6917 43.1601 48.6551 43.3837 48.3094 43.5017C48.0085 43.6074 47.6953 43.5464 47.3903 43.5017C46.6175 43.3878 46.4996 43.457 46.1417 44.1402C46.0115 44.3843 45.8976 44.6771 45.6902 44.8357C45.3445 45.0919 45.3364 45.4336 45.499 45.6857C45.739 46.064 45.5845 46.3324 45.3974 46.6009C45.1615 46.9506 45.3201 47.0442 45.6333 47.1621C46.6134 47.5241 47.5082 48.0447 48.3298 48.6954C48.6429 48.9435 48.9276 49.2282 49.0659 49.6593C48.6795 49.6227 48.3989 49.4234 48.0939 49.2811C46.7761 48.671 45.3811 48.3253 43.9576 48.0813C43.5306 48.0121 43.3719 48.3741 43.0954 48.5368C42.8961 48.6548 43.1279 48.8703 43.193 49.0249C44.1894 51.575 45.7105 53.82 47.3577 55.9797C49.4076 58.6721 51.8194 61.0107 54.5159 63.0483C58.3878 65.9686 62.642 68.2055 67.1728 69.9299C69.3325 70.7556 71.5287 71.4551 73.7656 72.0408C73.8795 72.0733 73.9975 72.0937 74.2212 72.1384C73.7534 71.5812 73.3183 71.1379 72.9644 70.6213C71.6101 68.6569 71.3457 66.538 72.0615 64.2848C72.273 63.6096 72.574 63.5039 73.1637 63.8902C73.607 64.179 73.9731 64.5613 74.2903 64.9924C74.6075 65.4154 74.6116 65.8831 74.4489 66.3631C74.152 67.2375 73.9893 68.1323 74.0137 69.0596C74.0259 69.5924 74.1154 70.1048 74.2618 70.6173C74.5181 71.4999 75.0671 72.0408 75.9212 72.415C77.5562 73.1226 79.3051 73.2853 81.0173 73.5822C84.7591 74.2248 88.5253 74.5339 92.3199 74.0825C94.3413 73.8425 96.3423 73.5172 98.2295 72.7037C98.6158 72.537 98.9005 72.602 99.2056 72.8501C99.535 73.1145 99.8116 73.4236 100.076 73.753C100.291 74.0174 100.283 74.172 99.9661 74.3672C97.9 75.6443 95.6672 76.3886 93.2391 76.6041C89.8918 76.901 86.5771 76.5716 83.2787 76.0469C76.4906 74.961 69.9629 73.021 63.793 69.9503C63.732 69.9218 63.4799 69.5395 63.4677 70.0316C63.4636 70.1496 63.2236 70.0235 63.0975 69.995C60.5515 69.3931 58.1438 69.694 55.8906 71.0525C54.5566 71.8578 53.6374 73.0616 52.7589 74.3143C51.9536 75.4694 51.2012 76.6611 50.0298 77.5152C48.7406 78.4628 47.3455 78.7434 45.8081 78.353C44.5514 78.0317 43.4126 77.5029 42.6032 76.4333C42.4934 76.2909 42.3023 76.1323 42.3918 75.9534C42.4894 75.7581 42.7253 75.8883 42.9001 75.8842C42.9327 75.8842 42.9612 75.8883 42.9896 75.9005C46.162 76.7627 48.3989 75.2009 50.3674 73.0128C51.3191 71.9554 52.1122 70.7556 53.2591 69.8689C55.252 68.3316 57.4971 67.8354 59.9618 68.1607C60.1082 68.177 60.2546 68.2665 60.4132 68.1973C60.4458 68.0347 60.2953 68.0306 60.218 67.9858C56.2444 65.6147 52.6328 62.7677 49.3913 59.4693C46.6216 56.6507 44.1691 53.5801 42.2941 50.0783C42.1396 49.7854 42.103 49.3096 41.798 49.2567C41.619 49.2242 41.3546 49.6675 41.1309 49.8993C40.346 50.6924 39.8173 51.6522 39.3048 52.6283C38.7964 53.6004 38.2799 54.5724 37.7552 55.5363C37.2102 56.545 36.7832 57.5821 36.9947 58.8755C36.3846 58.5908 35.9657 58.2451 35.742 57.696C35.4492 56.9883 35.4939 56.2603 35.7623 55.5608C36.5107 53.5923 37.2306 51.6116 38.3734 49.818C38.4222 49.7447 38.5076 49.6837 38.467 49.5455C37.9667 49.5983 37.4624 49.6553 36.9581 49.7122C36.1609 49.8098 35.624 49.395 35.1807 48.8052C34.9204 48.3497 35.4573 48.4229 35.5752 48.2155C36.2382 47.9999 36.9459 47.9267 37.5763 47.6054L37.5803 47.6014C37.6291 47.6502 37.6657 47.6217 37.7064 47.581C37.922 47.5526 38.1294 47.4997 38.3165 47.3777C38.4019 47.398 38.467 47.3573 38.532 47.3085C39.0811 47.1662 39.6383 47.0238 40.1386 46.7432C40.3867 46.5927 40.8706 46.6537 40.773 46.1901C40.6266 45.5068 40.6632 44.8438 40.7527 44.1687C40.8747 43.8677 40.9886 43.5668 41.1106 43.2658C41.318 43.0096 41.5255 42.7533 41.7329 42.5052C42.0216 42.2327 42.3674 42.2612 42.7131 42.3304C42.892 42.4524 43.0669 42.5703 43.2459 42.6923C43.4736 43.0177 43.8397 43.2373 43.9617 43.6359C44.1569 44.2785 44.7466 43.6074 45.0395 43.9572C45.1249 44.0589 45.2347 43.9979 45.2916 43.8759C45.3079 43.8352 45.3404 43.7945 45.3567 43.7539C45.4096 43.6115 45.4624 43.4692 45.5153 43.3268C45.7309 43.0136 45.9871 42.7655 46.402 42.7655L46.3816 42.7777Z" fill="#353535"/>
<path id="Vector_2" d="M41.0862 43.2821C40.9642 43.583 40.8503 43.884 40.7283 44.185C40.6836 44.189 40.6307 44.2012 40.59 44.1931C40.0857 44.0711 40.0125 44.1443 40.1548 44.6852C40.1914 44.8194 40.2402 44.9496 40.285 45.0838C40.3175 45.1896 40.3541 45.3563 40.2768 45.3929C39.9271 45.5393 40.0206 45.9338 39.8132 46.1494C39.439 45.7752 38.9672 45.6857 38.467 45.641C37.6861 45.5678 36.9011 45.6451 36.1202 45.6125C35.9738 45.5393 35.8152 45.4783 35.6728 45.3929C35.3719 45.2058 35.3475 45.3929 35.3475 45.6207C34.3144 45.8647 33.2448 45.7468 32.2036 45.942C32.0775 45.9623 31.9962 45.8647 31.9474 45.7752C31.5447 45.0391 30.8452 44.7869 30.0968 44.5998C29.141 44.3599 28.1893 44.0996 27.2376 43.8555C27.262 43.7335 27.1725 43.7091 27.0831 43.6684C25.627 43.0665 24.1629 42.4808 22.719 41.8504C21.5802 41.3542 20.596 40.6547 20.0022 39.5078C19.9778 39.1743 19.9778 38.8245 20.3357 38.6699C20.7424 38.491 21.145 38.6415 21.4623 38.8936C22.1578 39.4508 22.9712 39.7843 23.7765 40.126C23.8293 40.1463 23.8944 40.1463 23.9514 40.1544L23.9473 40.1504C24.0124 40.1992 24.0652 40.2602 24.1588 40.2154C25.0617 40.736 26.0459 41.0695 27.0261 41.4315C26.3103 40.8133 25.6514 40.1544 24.9966 39.4834C24.2889 38.7594 23.7643 37.9094 23.3332 36.9983C23.081 36.4696 23.0525 35.8473 22.6377 35.3918C22.8532 35.2576 22.7028 35.0827 22.6743 34.9322C22.5645 34.2937 22.4059 33.6633 22.3977 33.0126C22.3896 32.5814 22.5645 32.3008 23.02 32.252C23.8619 32.4432 24.4313 32.98 24.8583 33.6918C24.9966 33.9277 25.0332 34.192 24.9315 34.4483C24.8014 34.7818 24.8949 35.0787 25.0454 35.3756C25.0007 36.3639 25.2528 37.2749 25.7328 38.129C26.1151 38.975 26.839 39.5362 27.5101 40.1016C28.6245 41.0451 29.8365 41.8748 30.8411 42.9526C31.0485 43.1763 31.3129 43.3024 31.5854 43.3959C31.683 43.4285 31.805 43.5098 31.8823 43.3837C31.9758 43.2251 31.7969 43.2251 31.7277 43.1641C31.2803 42.7655 30.8045 42.3954 30.3693 41.9765C29.8487 41.4803 29.4542 40.8987 29.0231 40.3375C29.137 40.2561 29.0922 40.1544 29.0516 40.0487C29.2305 39.7315 29.5681 39.9552 29.7999 39.8209C30.414 40.4025 31.0811 40.9231 31.7806 41.4031C32.7852 42.3182 34.0013 42.8754 35.2092 43.4407C35.7623 43.701 36.3073 43.9938 36.9377 44.0467C37.4461 44.4168 37.9708 44.7706 38.41 45.2343C38.4995 45.3238 38.6459 45.4377 38.7761 45.3888C38.9428 45.3278 38.8574 45.1448 38.8574 45.0147C38.8452 44.4737 38.8696 43.9369 39.012 43.4041C39.5651 41.3136 40.1833 39.2393 40.2484 37.0594C40.2524 36.9495 40.2687 36.7706 40.3826 36.8031C40.9357 36.9739 40.7771 36.5062 40.8259 36.2947C41.1675 34.855 41.7288 33.5128 42.4934 32.2439C42.5748 32.3171 42.6683 32.3781 42.7334 32.4594C42.9693 32.7767 43.1848 32.7156 43.3801 32.4228C44.1162 31.345 44.9622 30.3608 45.7797 29.3481C46.1213 28.9251 46.524 28.5224 46.6663 27.9652C46.7314 27.9815 46.768 27.9693 46.7355 27.8961L46.7314 27.9002C47.1462 27.4853 47.2398 26.8956 47.5082 26.4075C47.6994 26.0618 47.9271 25.8503 48.346 25.952C49.0212 26.4238 49.6597 26.924 49.7207 27.8392C49.7207 27.8636 49.7614 27.8798 49.7858 27.9042L49.7736 27.892C49.7736 27.9408 49.7695 27.9856 49.7695 28.0344C49.6028 28.7299 49.3628 29.3928 48.9846 29.9988C48.4803 30.6495 47.98 31.2962 47.4757 31.947C47.3252 32.1218 47.1828 32.3049 47.0242 32.4716C46.0644 33.5047 45.1533 34.5703 44.4538 35.7985C44.287 36.006 44.0959 36.2053 44.0633 36.49C43.2418 37.6369 42.6236 38.8814 42.1843 40.2154C41.9037 40.6181 41.6271 41.0248 41.3465 41.4275C41.1309 41.7325 41.1513 41.9969 41.4604 42.2246C41.2489 42.5419 41.1635 42.8957 41.1187 43.2658L41.0862 43.2821Z" fill="#FFF0C1"/>
<path id="Vector_3" d="M27.2335 43.8352C28.1852 44.0874 29.137 44.3395 30.0927 44.5795C30.8411 44.7666 31.5447 45.0228 31.9433 45.7549C31.9921 45.8444 32.0734 45.9501 32.1995 45.9216C33.2407 45.7264 34.3104 45.8444 35.3434 45.6003C35.5996 45.7427 35.8599 45.7264 36.1202 45.5963C36.9011 45.6288 37.682 45.5556 38.467 45.6247C38.9672 45.6695 39.4431 45.7549 39.8132 46.1331C39.9311 46.3324 40.163 46.4748 40.1182 46.7473C39.6139 47.032 39.0608 47.1703 38.5117 47.3126C38.4222 47.2801 38.3531 47.3248 38.2921 47.3777L38.2961 47.3817C37.987 47.1621 37.6779 47.3736 37.3648 47.3777C37.3119 47.3899 37.259 47.3939 37.2062 47.4061C36.5269 47.3777 35.8599 47.4753 35.1889 47.5444C35.0994 47.5526 34.9855 47.52 34.953 47.6339C34.9204 47.7397 35.0262 47.7966 35.0912 47.8535C35.2417 47.9796 35.4003 48.1057 35.5549 48.2277C35.437 48.4351 34.9001 48.3538 35.1604 48.8174C34.9977 48.9557 34.7984 48.9679 34.5991 49.0045C33.4278 49.2242 32.2727 49.4926 31.1827 49.9969C29.3525 50.851 28.1853 52.3681 27.1359 54.003C26.1273 55.5811 25.5131 57.3178 25.1634 59.1561C25.0902 59.5303 24.9885 59.8272 24.5086 59.6808C24.2157 59.2659 23.7602 59.03 23.4308 58.6355C23.081 58.2207 22.9997 57.8139 23.081 57.3259C23.1013 57.2161 23.1095 57.1185 23.0566 57.0168C23.1461 56.8378 23.2071 56.6548 23.2599 56.4555C23.6504 54.8693 24.1791 53.3401 25.078 51.9613C25.2162 51.7498 25.4684 51.5872 25.4521 51.2862C25.5294 51.152 25.7816 51.1601 25.7409 50.9324C25.9605 50.8347 27.2783 49.6634 27.3962 49.4397C26.4893 49.7203 25.7002 50.1596 24.9193 50.6233C24.6021 50.8103 24.2239 50.9283 24.0083 51.2659C23.264 51.579 22.6458 52.0915 21.9951 52.547C21.564 52.848 21.1694 52.9985 20.7546 52.5592C19.9452 51.8963 19.9249 51.7458 20.4984 50.9283C20.5431 50.8673 20.5553 50.79 20.5797 50.7168C20.9213 50.4402 21.2955 50.1962 21.5965 49.8627C21.7592 49.6837 21.812 49.5658 21.6046 49.3828C21.2955 49.1062 21.0108 48.8052 20.718 48.5124C20.7627 48.2887 20.9213 48.1464 21.084 47.9999C21.5436 47.8007 22.0317 47.7437 22.5279 47.7437C23.6097 47.7356 24.6794 47.642 25.745 47.4712C26.1517 47.4061 26.5584 47.3085 26.9 47.0482C27.3922 47.0279 27.8436 46.8205 28.3073 46.6822C28.9092 46.4951 29.5477 46.4666 30.1293 46.2023C30.1497 46.1982 30.17 46.2023 30.1903 46.1982C30.17 46.1941 30.1497 46.1901 30.1293 46.1941C30.0521 46.1331 29.9748 46.0721 29.8934 46.0152C29.7877 45.7468 29.5274 45.82 29.3322 45.7874C27.7989 45.5393 26.2981 45.1936 24.8868 44.5063C23.3494 43.7579 21.9463 42.8022 20.5919 41.7732C19.8232 41.1834 19.0301 40.6018 18.4607 39.7965C18.3916 39.6949 18.2818 39.5769 18.3713 39.4712C18.4729 39.3532 18.6071 39.463 18.7007 39.524C19.266 39.9023 19.8395 40.2724 20.3804 40.675C22.4465 42.2043 24.6834 43.3512 27.2295 43.8393L27.2335 43.8352ZM31.1827 46.0681C31.1421 46.0681 31.0933 46.0681 31.0526 46.0681C30.833 45.9298 30.6011 45.885 30.3246 45.9501C30.5442 46.3162 30.8004 46.1819 31.0485 46.064C31.0892 46.064 31.138 46.064 31.1787 46.064C31.1909 46.0599 31.2031 46.0559 31.2193 46.0559C31.2071 46.0599 31.1949 46.064 31.1787 46.0721L31.1827 46.0681Z" fill="#FFFEEF"/>
<path id="Vector_4" d="M24.5126 59.6848C24.9885 59.8272 25.0942 59.5343 25.1674 59.1602C25.5131 57.3259 26.1273 55.5811 27.14 54.0071C28.1852 52.3762 29.3525 50.851 31.1868 50.001C32.2768 49.4967 33.4278 49.2242 34.6032 49.0086C34.8025 48.972 35.0018 48.9598 35.1645 48.8215C35.6078 49.4112 36.1487 49.822 36.9418 49.7285C37.1655 50.3752 37.1777 50.3955 36.5798 50.7412C36.0958 51.0218 35.7339 51.3269 35.5427 51.9247C35.2661 52.7788 34.6764 53.4987 34.0948 54.1779C32.8828 55.5933 32.3866 57.2364 32.3825 59.0626C32.3825 59.6808 32.411 60.303 32.4069 60.9253C32.4069 61.088 32.4557 61.2995 32.2646 61.3849C32.0897 61.4622 31.9433 61.3157 31.7969 61.2344C31.4837 61.0595 31.3576 60.7545 31.2885 60.4332C30.8126 58.0295 31.0485 55.7519 32.5086 53.6899C32.6022 53.5638 32.6876 53.4377 32.7811 53.3116C32.8665 53.2018 32.956 53.0961 33.0739 52.9456C32.7445 52.9334 32.59 53.153 32.4191 53.2913C30.3612 54.9344 28.7018 56.9029 27.5304 59.2862C27.1969 59.9695 27.2254 60.6975 27.0831 61.4012C27.0302 61.6411 27.2498 61.8607 27.3393 62.0885C27.4166 62.2797 27.4735 62.4911 27.3149 62.6579C27.1563 62.8165 26.9163 62.8125 26.7455 62.7067C26.0866 62.2919 25.3261 62.0194 24.7973 61.4093C24.3499 60.8968 24.3865 60.299 24.5045 59.693L24.5126 59.6848Z" fill="#FFF0C1"/>
<path id="Vector_5" d="M44.0308 36.5062C44.0633 36.2215 44.2545 36.0222 44.4213 35.8148C44.6531 35.5911 44.9174 35.3918 45.1208 35.1396C45.9424 34.1147 46.7395 33.0735 47.5489 32.0446C48.0735 31.4223 48.5982 30.8 49.0334 30.1045C50.6928 28.0384 52.3888 26.0008 54.2556 24.1177C52.7914 25.4273 51.0548 26.4156 49.7573 27.9164C49.737 27.8961 49.6963 27.8717 49.6923 27.8513C49.6272 26.9322 48.9927 26.436 48.3176 25.9642C48.7731 24.9393 49.2977 23.9591 50.1234 23.166C50.2413 23.2433 50.3674 23.3043 50.4691 23.3978C50.7334 23.6459 50.9124 23.6622 51.0914 23.288C51.3761 22.6861 51.795 22.1696 52.2586 21.6896C52.9988 20.925 53.8001 20.2214 54.5891 19.5056C55.3985 19.713 56.0045 20.1889 56.4193 20.9047C56.6674 21.3399 56.7935 21.7994 56.5454 22.2753C56.3949 22.5641 56.6308 22.5397 56.7772 22.5803C57.7045 22.8162 58.3837 23.3816 58.8189 24.2153C59.4331 25.3907 59.0141 26.2489 57.7167 26.5051C56.8098 26.6881 56.0411 27.1396 55.3374 27.7131C54.8575 28.1035 54.4061 28.5306 53.9424 28.9373C53.6699 28.6648 53.4056 28.376 53.1209 28.1157C52.4701 27.53 52.1773 27.5626 51.6486 28.2459C51.6079 28.2947 51.5794 28.3475 51.5469 28.4045C50.7701 29.5961 50.0014 30.7878 49.0822 31.8778C48.2972 32.8092 47.5163 33.7528 46.7599 34.7045C46.0278 35.6236 45.373 36.6038 44.5473 37.4457C44.2626 37.1936 44.0918 36.8763 44.0389 36.4981L44.0308 36.5062Z" fill="#F5EAD1"/>
<path id="Vector_6" d="M27.2335 43.8352C24.6875 43.3471 22.4506 42.2002 20.3845 40.6709C19.8395 40.2642 19.266 39.8941 18.7048 39.5199C18.6112 39.4589 18.4729 39.345 18.3753 39.4671C18.2858 39.5728 18.3957 39.6989 18.4648 39.7924C19.0383 40.6018 19.8273 41.1793 20.596 41.7691C21.9463 42.8021 23.3535 43.7538 24.8909 44.5022C26.3022 45.1895 27.8029 45.5352 29.3362 45.7833C29.5315 45.8159 29.7918 45.7427 29.8975 46.0111C29.8243 46.0843 29.743 46.0924 29.6454 46.0762C26.9732 45.6816 24.3418 45.1 21.7388 44.4086C20.9946 44.2093 20.2706 43.9328 19.5019 43.8311C19.1359 43.7823 19.0057 43.9124 19.0952 44.2704C19.1196 44.3598 19.1277 44.4493 19.144 44.5388C18.298 44.4168 17.4561 44.2907 16.6142 44.1727C16.2807 44.1239 16.0082 44.1605 15.8008 44.5225C15.5934 44.8845 15.1826 44.9618 14.7718 44.9252C13.7144 44.8194 12.5715 43.7986 12.3438 42.7574C12.1729 41.9846 12.4698 41.5332 13.206 41.2607C14.0316 40.9556 14.8491 40.9922 15.6788 41.1549C16.5451 41.3217 17.4073 41.4925 18.3021 41.6715C18.2126 41.4274 18.0093 41.3949 17.8385 41.3298C16.3702 40.7482 14.9183 40.1341 13.5639 39.2922C12.8237 38.8367 12.1811 38.2998 11.7418 37.5433C11.5913 37.2871 11.4937 37.0105 11.4571 36.7136C11.3554 35.8473 11.8516 35.286 12.722 35.3349C14.2065 35.4203 15.264 36.2174 16.0571 37.4172C16.1628 37.5718 16.2319 37.7304 16.419 37.8199C17.6107 38.3771 18.778 38.9831 19.9981 39.4874C20.5878 40.6303 21.5762 41.3339 22.715 41.8301C24.1588 42.4605 25.623 43.0461 27.079 43.6481C27.1685 43.6888 27.2579 43.7132 27.2335 43.8352Z" fill="#F5EAD1"/>
<path id="Vector_7" d="M44.5351 37.4498C45.3608 36.6079 46.0196 35.6318 46.7477 34.7086C47.5082 33.7528 48.281 32.8092 49.07 31.8819C49.9892 30.7919 50.7619 29.5962 51.5347 28.4086C51.5713 28.3557 51.5998 28.3028 51.6364 28.25C52.1651 27.5667 52.462 27.5301 53.1087 28.1198C53.3934 28.3801 53.6577 28.6689 53.9302 28.9414C54.158 29.1691 54.2027 29.4498 54.1539 29.7507C54.1295 29.889 54.0726 30.0192 54.2068 30.1371C53.8651 30.3486 53.8326 30.739 53.6821 31.0603C53.6252 31.1824 53.8163 31.0725 53.8773 31.1254C53.8367 31.1742 53.796 31.2312 53.7553 31.28C53.617 31.3939 53.434 31.4223 53.3242 31.6053C52.2505 33.3217 50.8839 34.8021 49.4442 36.2093C48.7975 36.6283 48.1996 37.1041 47.6465 37.6328C46.5646 38.4137 45.5763 39.3044 44.6653 40.2643C44.0105 40.9598 43.3231 41.6308 42.6805 42.3466C42.3307 42.2734 41.9891 42.249 41.7003 42.5215C41.6068 42.428 41.5133 42.3344 41.4197 42.2409C41.1106 42.0131 41.0903 41.7488 41.3058 41.4437C41.5865 41.0411 41.8671 40.6385 42.1437 40.2317C42.6317 39.7437 43.075 39.2109 43.5102 38.6862C43.8478 38.2754 44.3074 37.9623 44.527 37.458L44.5351 37.4498Z" fill="#FFFEEF"/>
<path id="Vector_8" d="M25.8304 31.7924C26.5015 32.073 26.9814 32.5855 27.3067 33.2037C28.047 34.6109 29.0922 35.7782 30.1334 36.9576C30.353 37.1854 30.5727 37.4132 30.7882 37.645C30.7801 37.8158 30.8655 37.9012 31.0363 37.9094C31.7887 38.8733 32.594 39.7924 33.5173 40.6181C33.6881 40.3822 33.5539 40.2317 33.4807 40.0609C33.1106 39.2271 32.7242 38.4015 32.3785 37.5596C31.8213 36.2052 31.3698 34.8183 30.5767 33.5616C29.9748 32.6099 29.4867 31.585 29.1858 30.4868C28.9539 29.6449 28.7791 28.803 29.259 27.9733C29.5111 27.5341 29.5274 27.0379 29.5152 26.5376C29.7064 26.5498 29.7755 26.3424 29.9382 26.3099C30.048 26.3709 30.1131 26.4685 30.1659 26.5864C30.6418 27.5992 31.2803 28.4817 32.2524 29.0877C32.0246 30.2428 32.3866 31.3287 32.6957 32.4025C32.9194 33.1955 32.9967 34.0537 33.5783 34.7167C33.6352 34.8875 33.7084 35.0583 33.745 35.2413C33.9362 36.1808 34.1111 37.1203 34.3063 38.0558C34.5422 39.1702 34.7699 40.2927 35.3231 41.3095C35.6525 41.9155 36.043 42.493 36.2789 43.1519C36.0552 43.5545 35.7054 43.4651 35.3922 43.339C34.9367 43.1519 34.5178 42.8794 34.1151 42.5988C34.3876 42.2043 34.0053 42.009 33.8386 41.7772C33.2692 40.9963 32.4069 40.6221 31.561 40.2398C30.6947 39.8453 30.0317 39.28 29.7714 38.3201C29.6738 37.9622 29.5152 37.6247 29.381 37.2789C28.7018 35.526 27.4979 34.1839 26.0378 33.0491C25.867 32.919 25.684 32.8417 25.5091 33.0491C25.1064 32.4431 25.2325 31.9429 25.8263 31.8046L25.8304 31.7924Z" fill="#FFF0C1"/>
<path id="Vector_9" d="M42.6927 42.3426C43.3272 41.6267 44.0145 40.9557 44.6775 40.2602C45.5885 39.3003 46.5809 38.4056 47.6587 37.6287C47.6709 38.2836 47.2398 38.7716 46.9347 39.3857C48.0166 38.4422 48.7894 37.3603 49.4564 36.2052C50.9002 34.794 52.2627 33.3176 53.3364 31.6012C53.4503 31.4223 53.6292 31.3898 53.7675 31.2759C54.52 31.2474 55.1951 31.3694 55.7116 32.0161C56.1997 32.6343 56.1834 32.8377 55.5123 33.2403C55.3456 33.342 55.1504 33.4152 55.0324 33.5901C54.0197 34.2368 53.4381 35.2332 52.8606 36.2337C52.7874 36.3639 52.7101 36.4981 52.6369 36.6282C51.9699 37.7996 51.3069 38.9668 50.3715 39.9592C50.0461 40.2602 49.6191 40.3619 49.2327 40.5367C48.6592 40.793 48.6551 40.7808 48.9195 41.3136C48.3013 41.826 47.557 42.1311 46.8534 42.493C46.6907 42.5744 46.5402 42.6842 46.3857 42.7818C45.9749 42.7859 45.7146 43.0299 45.499 43.3431C44.9215 43.7579 44.7873 43.7538 44.287 43.278C44.1447 43.1356 43.9454 43.0014 43.8966 42.8306C43.742 42.2612 43.5021 42.428 43.2255 42.7127C43.0466 42.5906 42.8717 42.4727 42.6927 42.3507L42.6927 42.3426Z" fill="#FFF0C1"/>
<path id="Vector_10" d="M35.4573 29.95C35.4736 28.8112 35.4817 27.6724 35.5061 26.5336C35.5264 25.5209 35.5671 24.5041 35.5915 23.4873C35.7664 23.2474 35.6769 22.9789 35.681 22.7227C35.6891 22.3323 35.7054 21.95 35.8315 21.5799C36.0145 21.0308 36.5676 20.8112 36.9947 21.1894C37.7146 21.8279 38.349 22.5275 38.2677 23.6256C38.1294 25.4233 38.0359 27.225 37.9423 29.0268C37.926 29.3196 37.8162 29.649 38.0643 29.9134C38.0237 30.3689 37.8569 30.8122 37.9423 31.28C37.804 31.7436 37.9789 32.1951 37.9992 32.6547C38.1294 35.5423 37.6942 38.369 37.1085 41.1834C36.8279 41.033 36.7506 40.671 36.4456 40.5449C36.1934 39.821 36.1162 39.0604 35.9575 38.3161C35.9331 38.2022 35.9738 38.1046 36.0511 38.0192C35.9535 37.1244 35.8721 36.2297 35.7623 35.3308C35.7257 35.0258 35.8477 34.6842 35.5956 34.4157C35.624 34.3303 35.6932 34.2449 35.685 34.1636C35.559 33.0614 35.6525 31.951 35.4573 30.8529C35.4248 30.6496 35.3068 30.434 35.498 30.2428L35.4614 30.068L35.4573 30.072C35.4614 30.0273 35.4614 29.9866 35.4614 29.9378L35.4573 29.95Z" fill="#FFF0C1"/>
<path id="Vector_11" d="M26.9 47.0563C26.5584 47.3166 26.1517 47.4142 25.745 47.4793C24.6794 47.6501 23.6057 47.7396 22.5279 47.7518C22.0357 47.7559 21.5436 47.8088 21.084 48.008C18.6112 47.9999 16.2482 48.4514 14.0764 49.704C13.6534 49.9481 13.2914 50.2368 13.1124 50.7249C12.9701 51.1194 12.6041 51.1926 12.2217 51.1601C11.3961 51.0828 10.5786 50.3548 10.3793 49.5373C10.1841 48.7076 10.4851 47.9918 11.2782 47.4753C12.9416 46.3975 14.7962 45.8931 16.7403 45.6572C17.8629 45.519 18.9976 45.4905 20.1283 45.5637C20.234 45.5718 20.3763 45.6491 20.4496 45.4783L20.4455 45.4742C20.4821 45.6084 20.5919 45.5718 20.6814 45.5718C20.9946 45.6247 21.3118 45.6654 21.625 45.7345C23.0973 46.068 24.5655 46.4056 26.0337 46.7513C26.3306 46.8204 26.6519 46.8164 26.8878 47.0441L26.9 47.0563Z" fill="#F5EAD1"/>
<path id="Vector_12" d="M29.5233 26.5376C29.5315 27.0338 29.5193 27.5341 29.2671 27.9733C28.7872 28.803 28.9621 29.6449 29.1939 30.4868C29.4949 31.585 29.9829 32.6099 30.5849 33.5616C31.382 34.8143 31.8294 36.2052 32.3866 37.5596C32.7323 38.4015 33.1187 39.2271 33.4888 40.0609C33.562 40.2236 33.6962 40.3822 33.5254 40.6181C32.6022 39.7924 31.7969 38.8814 31.0444 37.9094C30.959 37.8239 30.8777 37.7345 30.7923 37.6409L30.7964 37.645C30.6947 37.3318 30.5076 37.0715 30.2636 36.8519C28.9499 35.0339 27.5874 33.2403 26.6885 31.162C26.0459 29.6815 25.7531 28.1198 25.505 26.5376C25.4237 26.0333 25.5701 25.5534 25.7002 25.0735C25.9727 24.5813 26.3632 24.2966 26.961 24.3333C27.5589 24.3699 28.0429 24.6342 28.4822 25.0084C28.9377 25.4395 29.3688 25.895 29.5315 26.5295L29.5233 26.5376Z" fill="#F5EAD1"/>
<path id="Vector_13" d="M46.646 27.9693C46.5036 28.5265 46.101 28.9291 45.7593 29.3521C44.9418 30.3648 44.0918 31.3532 43.3597 32.4269C43.1645 32.7116 42.949 32.7807 42.7131 32.4635C42.652 32.3781 42.5544 32.3211 42.4731 32.2479C42.4894 32.0283 42.5992 31.8372 42.6927 31.646C43.0913 30.8244 43.4736 30.0029 43.7054 29.1203C44.0552 27.7781 44.3765 26.4319 43.3516 25.2118C43.6485 24.9474 43.8153 24.6017 43.9739 24.2479C44.1 23.9672 44.0877 23.6622 43.9047 23.406C43.7298 23.1579 43.5834 22.8813 43.3313 22.6861C43.2906 21.9947 43.2499 21.2951 43.2092 20.6037C43.197 20.3882 43.1726 20.1685 43.1767 19.953C43.1889 18.9972 43.8153 18.4847 44.7466 18.7084C45.9749 19.0013 46.6948 19.8432 47.0608 21.0145C47.1015 21.1447 47.1218 21.287 47.1503 21.4212C47.1015 23.0643 47.0852 24.7156 46.8859 26.3547C46.8737 26.4563 46.9144 26.5377 46.9958 26.5946C46.8331 27.0176 46.646 27.4324 46.707 27.9083L46.7111 27.9042C46.6867 27.9286 46.6663 27.949 46.6419 27.9734L46.646 27.9693Z" fill="#F5EAD1"/>
<path id="Vector_14" d="M43.3353 22.6901C43.5834 22.8813 43.7298 23.1579 43.9088 23.41C44.0918 23.6662 44.1081 23.9672 43.9779 24.2519C43.8234 24.6017 43.6485 24.9474 43.3557 25.2158C43.136 25.2321 43.0588 25.0165 42.9001 24.9311C42.6154 24.7766 42.4121 24.7766 42.4121 25.167C42.408 26.318 42.0786 27.3714 41.6475 28.4289C41.0943 29.7873 40.5656 31.1538 40.0084 32.5082C39.9759 32.5895 39.9799 32.7075 39.8579 32.7075C39.7685 32.7075 39.7441 32.618 39.7115 32.5529C39.3983 31.8493 38.772 31.4751 38.166 31.0725C38.1782 30.9952 38.1904 30.9179 38.2067 30.8447C38.6622 28.8193 39.2845 26.8467 40.2484 24.9962C40.3257 24.8457 40.5209 24.6912 40.2199 24.5041C39.6058 24.134 39.1869 23.6256 39.2804 22.8406C39.3089 22.1207 39.3983 21.4049 39.5854 20.7135C39.8091 19.8797 40.102 19.0744 40.8422 18.5376C41.5377 18.2651 42.4487 18.9809 42.3796 19.7496C42.3063 20.5549 41.863 21.226 41.6149 21.9702C41.4767 22.3851 41.3262 22.804 41.1391 23.3327C41.9579 22.5627 42.6941 22.3526 43.3475 22.7023L43.3353 22.6901Z" fill="#FFF0C1"/>
<path id="Vector_15" d="M35.4939 30.2469C35.3027 30.4381 35.4207 30.6536 35.4532 30.857C35.6484 31.9551 35.5549 33.0654 35.681 34.1676C35.6891 34.249 35.624 34.3384 35.5915 34.4198C35.502 34.4523 35.4126 34.4849 35.3231 34.5174C35.2214 34.432 35.2011 34.3059 35.1848 34.1839C35.0709 33.1996 34.8757 32.2235 34.8757 31.2393C34.8716 30.2428 34.2819 29.7426 33.5945 29.2423C33.2936 29.0227 33.1797 29.1447 33.1594 29.4579C33.1268 29.9053 33.1106 30.3526 33.0861 30.8C33.0048 30.6373 32.9519 30.4706 32.9113 30.2916C32.7689 29.6694 32.594 29.0552 32.4273 28.4411C32.4435 28.3191 32.411 28.2052 32.3419 28.1035C32.1751 27.2535 31.927 26.4279 31.6667 25.6063C31.439 24.98 31.5813 24.3496 31.7155 23.7436C31.9392 22.7227 31.5447 22.0191 30.7231 21.4741C30.5239 21.3399 30.353 21.1203 30.0683 21.2585C29.7145 20.5305 29.4339 19.7781 29.3444 18.9647C29.2834 18.3993 29.3525 17.8503 29.5884 17.3297C29.8162 16.8254 30.1659 16.6301 30.6987 16.7074C31.561 16.8294 32.411 17.6551 32.5493 18.5173C32.5818 18.7369 32.5778 18.9443 32.4761 19.1518C32.2402 19.6317 32.2809 20.1035 32.4964 20.5875C33.4969 22.8325 34.3063 25.1386 34.8472 27.5341C35.0018 28.2174 35.1238 28.9007 35.2702 29.584C35.2987 29.7182 35.2295 29.9093 35.4451 29.9622C35.3475 30.011 35.3678 30.0557 35.4451 30.1005L35.4451 30.0924C35.3556 30.1737 35.4044 30.2225 35.4817 30.2672L35.4939 30.2469Z" fill="#F5EAD1"/>
<path id="Vector_16" d="M25.8304 31.7924C25.2366 31.9226 25.1105 32.4228 25.5131 33.0369C25.5091 33.1468 25.5782 33.224 25.6352 33.3054C25.5253 33.586 25.745 33.7568 25.867 33.9521C26.2005 34.497 26.5055 35.0705 27.0302 35.4732C27.1522 35.7172 27.3067 35.945 27.3922 36.2012C27.8761 37.6125 28.7058 38.8001 29.7836 39.8209C29.5518 39.9551 29.2102 39.7274 29.0353 40.0487C27.5711 38.6008 26.2371 37.039 25.0251 35.3715C24.8787 35.0786 24.7811 34.7777 24.9112 34.4442C25.0129 34.1879 24.9803 33.9195 24.838 33.6877C24.415 32.9719 23.8416 32.4391 22.9997 32.2479C22.5807 31.4711 22.1456 30.7024 21.7592 29.9175C21.3443 29.0715 21.1003 28.1767 21.2711 27.225C21.4867 26.0008 22.4099 25.5656 23.508 26.1513C24.5167 26.6963 24.9478 27.6724 24.6306 28.7624C24.533 29.104 24.5858 29.4009 24.7363 29.6978C25.0983 30.4014 25.4603 31.0969 25.8222 31.8005L25.8304 31.7924Z" fill="#F5EAD1"/>
<path id="Vector_17" d="M25.4521 51.2943C25.4684 51.5953 25.2162 51.7498 25.078 51.9694C24.1791 53.3482 23.6504 54.8774 23.2599 56.4636C23.2111 56.6588 23.1461 56.8459 23.0566 57.0249C22.9753 57.1388 22.898 57.2567 22.8085 57.3625C22.4547 57.7651 22.3245 58.1149 22.7272 58.6314C23.1745 59.2171 22.9752 59.9532 22.3855 60.4535C22.052 60.7382 21.6778 60.9578 21.2752 61.1246C20.4414 61.4703 19.7012 61.2669 18.9935 60.486C18.3753 59.8027 18.2777 59.0788 18.7007 58.306C20.2869 55.4184 22.4303 53.0635 25.2935 51.396C25.3464 51.3675 25.3952 51.3268 25.4481 51.2902L25.4521 51.2943Z" fill="#F5EAD1"/>
<path id="Vector_18" d="M22.6255 35.3878C23.0403 35.8433 23.0688 36.4656 23.321 36.9943C23.7561 37.9094 24.2808 38.7513 24.9844 39.4793C25.6352 40.1463 26.2981 40.8093 27.0139 41.4275C26.0337 41.0655 25.0495 40.732 24.1466 40.2114C24.0774 40.1829 24.0327 40.0894 23.9351 40.1463L23.9392 40.1504C23.203 39.5444 22.4425 38.9547 21.7307 38.3242C20.6488 37.3563 19.6646 36.2907 18.8146 35.1071C18.8227 35.0014 18.7292 34.9567 18.6763 34.8794C18.1069 34.0822 17.6636 33.2485 17.8263 32.2154C18.2086 31.5647 18.7088 31.3654 19.4246 31.5931C20.3845 31.8941 21.0393 32.5164 21.3809 33.4762C21.6412 34.2083 22.1008 34.8224 22.6092 35.3959L22.6255 35.3878Z" fill="#F5EAD1"/>
<path id="Vector_19" d="M40.83 18.5254C40.0938 19.0663 39.7969 19.8676 39.5732 20.7013C39.3902 21.3968 39.3007 22.1126 39.2723 22.8325C39.0974 23.0074 39.1014 23.2392 39.0689 23.467C38.7395 25.6185 38.5076 27.7863 38.0603 29.9174C37.8162 29.649 37.922 29.3236 37.9382 29.0308C38.0318 27.2291 38.1294 25.4314 38.2636 23.6297C38.345 22.5315 37.7105 21.832 36.9906 21.1934C36.5635 20.8152 36.0104 21.0348 35.8274 21.5839C35.7013 21.954 35.685 22.3363 35.6769 22.7268C35.6728 22.983 35.7664 23.2555 35.5874 23.4914C34.9896 23.3246 34.6561 22.9423 34.5666 22.3078C34.4405 21.4334 34.4446 20.5834 34.7089 19.7333C34.9408 18.9891 35.4492 18.7572 36.1365 19.1273C36.5961 19.3754 36.771 19.5991 37.0435 20.2783C37.1736 20.2458 37.1736 20.1319 37.2102 20.0302C37.4339 19.3836 37.7552 18.7776 38.0074 18.1512C38.4832 16.9677 39.7034 17.0246 40.4192 17.9031C40.5778 18.0943 40.6876 18.318 40.8218 18.5254L40.83 18.5254Z" fill="#F5EAD1"/>
<path id="Vector_20" d="M54.5932 19.5015C53.8041 20.2173 53.0029 20.921 52.2627 21.6856C51.799 22.1655 51.3801 22.682 51.0954 23.284C50.9165 23.6581 50.7375 23.6419 50.4732 23.3938C50.3755 23.2962 50.2454 23.2392 50.1274 23.1619C49.9038 22.9627 49.7207 22.7308 49.5702 22.4746C49.3832 22.2143 49.6882 22.015 49.6638 21.7791C50.0949 20.9982 50.6074 20.2743 51.1158 19.5463C51.2825 19.3795 51.4452 19.2168 51.6119 19.0501C52.4538 18.0292 53.495 17.1833 54.158 16.0079C54.2597 15.8248 54.3817 15.7435 54.6054 15.9021C54.9226 16.1299 55.2276 16.3617 55.4554 16.6789C55.9394 17.3744 55.858 18.1634 55.2439 18.8345C55.0324 19.0623 54.8128 19.2738 54.5972 19.4975L54.5932 19.5015Z" fill="#FFFEEF"/>
<path id="Vector_21" d="M48.9114 41.3054C48.6429 40.7767 48.6511 40.7848 49.2245 40.5286C49.6109 40.3537 50.038 40.252 50.3633 39.9511C50.4243 40.0121 50.4935 40.0243 50.5748 39.9917C51.2337 39.7233 51.9007 39.4711 52.5433 39.1783C53.4096 38.7838 54.04 38.1209 54.6379 37.3928C55.2276 36.6811 55.8174 35.9693 56.3705 35.2291C56.582 34.9444 56.8342 34.9038 57.1351 35.1071C57.4239 35.2983 57.6598 35.5423 57.8713 35.8107C58.1112 36.1158 57.9363 36.4127 57.7696 36.6689C57.1961 37.5352 56.5495 38.3608 55.7279 38.9953C54.6054 39.8657 53.4178 40.6465 52.1041 41.2119C51.5753 41.4396 51.0181 41.5739 50.4772 41.7487C49.8224 41.9724 49.3506 41.7447 48.9154 41.3014L48.9114 41.3054Z" fill="#FFFEEF"/>
<path id="Vector_22" d="M20.718 48.5205C21.0108 48.8134 21.2955 49.1143 21.6046 49.3909C21.8161 49.578 21.7592 49.6919 21.5965 49.8708C21.2915 50.2003 20.9254 50.4443 20.5797 50.7249C20.474 50.6355 20.3885 50.7046 20.2828 50.7453C19.2782 51.1072 18.5177 51.8515 17.6229 52.3884C17.3382 52.5755 17.0657 52.7829 16.7688 52.9415C16.0489 53.3198 15.325 53.1489 14.8816 52.5185C14.5075 51.9898 14.6132 51.2333 15.1541 50.7087C15.9635 49.9318 16.9478 49.4519 18.0011 49.0981C18.8837 48.8012 19.7907 48.6019 20.7221 48.5246L20.718 48.5205Z" fill="#F5EAD1"/>
<path id="Vector_23" d="M49.6679 21.7832C49.6882 22.0231 49.3872 22.2183 49.5743 22.4786C49.1391 22.987 48.8056 23.5646 48.4599 24.1299C47.9678 24.9474 47.4838 25.773 46.9917 26.5986C46.9144 26.5376 46.8697 26.4604 46.8819 26.3587C47.0812 24.7196 47.1015 23.0724 47.1462 21.4252C47.736 20.5833 48.2606 19.7008 48.9236 18.9077C49.0253 18.7897 49.1025 18.6555 49.2489 18.5905C49.314 18.745 49.3913 18.8874 49.5133 19.0094C49.8509 19.3388 49.9119 19.3347 50.0949 18.8996C50.2291 18.5783 50.4569 18.3424 50.7009 18.1065C51.0466 18.379 51.3476 18.6881 51.6038 19.05C51.4371 19.2168 51.2744 19.3795 51.1076 19.5462C50.9083 19.4446 50.6846 19.2371 50.5138 19.53C50.2007 20.0628 49.8387 20.5467 49.4238 21.0023C49.131 21.3276 49.2245 21.5595 49.6516 21.7832L49.6679 21.7832Z" fill="#FFF0C1"/>
<path id="Vector_24" d="M28.474 25.0165C28.0348 24.6424 27.5467 24.3821 26.9529 24.3414C26.355 24.3048 25.9687 24.5854 25.6921 25.0816C25.3342 24.2275 25.2325 23.3205 25.1918 22.4095C25.1674 21.832 25.0983 21.2422 25.2528 20.6647C25.444 20.6444 25.5497 20.807 25.7002 20.8762C25.9971 21.0023 26.2656 21.1894 26.6153 21.165C26.9895 21.1406 27.1725 20.9575 27.1929 20.5874C27.2132 20.2743 27.0912 20.014 26.8797 19.7943C26.6479 19.5462 26.4038 19.3103 26.168 19.0663C27.0912 19.2656 27.7379 19.8309 28.1283 20.6688C28.4049 21.2626 28.5432 21.897 28.4862 22.5641C28.4171 23.3815 28.4374 24.199 28.4659 25.0165L28.474 25.0165Z" fill="#FFF0C1"/>
<path id="Vector_25" d="M26.9 47.0564C26.656 46.8286 26.3347 46.8327 26.0459 46.7635C24.5777 46.4178 23.1095 46.0802 21.6372 45.7467C21.324 45.6776 21.0068 45.6369 20.6936 45.5841C20.6285 45.5108 20.5716 45.4295 20.4577 45.4864L20.4618 45.4905C20.0062 45.2058 19.4775 45.0106 19.1481 44.551C19.1318 44.4615 19.1196 44.368 19.0993 44.2826C19.0098 43.9247 19.1399 43.7945 19.506 43.8433C20.2747 43.945 20.9986 44.2216 21.7429 44.4209C24.354 45.1123 26.9814 45.6898 29.6494 46.0884C29.747 46.1046 29.8324 46.1006 29.9016 46.0233C29.9789 46.0843 30.0561 46.1453 30.1375 46.2023L30.1334 46.2063C29.5559 46.4748 28.9214 46.5073 28.3154 46.6903C27.8558 46.8327 27.4003 47.036 26.9082 47.0564L26.9 47.0564Z" fill="#FFF0C1"/>
<path id="Vector_26" d="M30.0683 21.2504C30.353 21.1121 30.5239 21.3317 30.7231 21.4659C31.5366 22.0109 31.9392 22.7145 31.7155 23.7354C31.5813 24.3414 31.439 24.9718 31.6667 25.5981C31.5528 25.5819 31.5406 25.6592 31.5488 25.7405C31.6179 26.3546 31.5813 26.9932 31.9311 27.5463C31.8375 27.9734 32.0897 28.2825 32.289 28.6119C32.3663 28.7705 32.4313 28.9332 32.2646 29.0755C31.2966 28.4736 30.654 27.5951 30.1781 26.5743C30.1253 26.4563 30.0602 26.3587 29.9504 26.2977C29.9992 26.135 29.9097 26.0049 29.8568 25.8544C29.4257 24.6017 29.2834 23.3287 29.6169 22.0272C29.6942 21.714 29.8284 21.4497 30.0724 21.2382L30.0683 21.2504Z" fill="#FFFEEF"/>
<path id="Vector_27" d="M41.5783 9.48007C41.8793 9.78917 41.9769 10.2772 41.8712 10.806C41.6963 11.656 41.4238 12.4816 41.4197 13.3642C41.4156 13.775 41.0537 13.8441 40.7283 13.7709C40.224 13.657 39.8457 13.3438 39.744 12.8273C39.5529 11.8309 39.4838 10.8263 39.7644 9.82984C40.0206 8.92287 40.8015 8.71952 41.5783 9.48007Z" fill="#F5EAD1"/>
<path id="Vector_28" d="M17.8344 32.2072C17.6717 33.2403 18.115 34.0741 18.6844 34.8712C18.7332 34.9444 18.8268 34.9892 18.8227 35.099C18.7373 35.2739 18.8634 35.3999 18.9407 35.5179C19.3067 36.0873 19.5914 36.7136 20.0672 37.2139C20.2462 37.3928 20.3845 37.6531 20.1852 37.885C19.9696 38.1412 19.7053 37.9338 19.5263 37.8036C18.1476 36.8153 17.1104 35.5504 16.4882 33.9602C16.4109 33.7609 16.3702 33.5413 16.3499 33.3257C16.2726 32.3618 16.9112 31.8859 17.8263 32.2072L17.8344 32.2072Z" fill="#FFF0C1"/>
<path id="Vector_29" d="M56.8179 28.8031C56.6593 28.5957 56.2404 28.4126 56.3542 28.1117C56.464 27.831 56.8545 28.0913 57.1189 28.071C58.339 27.9815 59.5551 28.2133 60.7752 28.0669C61.2633 28.01 62.2841 28.9332 62.3248 29.4213C62.3573 29.7873 62.1255 29.8971 61.8001 29.9134C60.9257 29.95 60.0879 29.6897 59.2297 29.6124C58.8637 29.5799 58.4976 29.4986 58.1275 29.4538C57.6232 29.3887 57.1839 29.1718 56.8098 28.8031L56.8179 28.8031Z" fill="#FFFEEF"/>
<path id="Vector_30" d="M17.627 52.3843C18.5217 51.8474 19.2823 51.1032 20.2869 50.7412C20.3886 50.7046 20.478 50.6314 20.5838 50.7208C20.5553 50.79 20.539 50.8713 20.5024 50.9323C19.929 51.7498 19.9493 51.9003 20.7587 52.5633C20.0835 53.1489 19.3474 53.6654 18.843 54.4301C18.7536 54.5602 18.6193 54.6538 18.4526 54.6497C17.8954 54.6212 17.5822 54.2186 17.2813 53.8281C17.0372 53.5109 17.1674 53.1937 17.3423 52.8805C17.4358 52.7137 17.6798 52.6324 17.631 52.3884L17.627 52.3843Z" fill="#FFF0C1"/>
<path id="Vector_31" d="M26.1761 19.0664C26.416 19.3063 26.656 19.5463 26.8878 19.7944C27.0993 20.014 27.2173 20.2702 27.201 20.5875C27.1807 20.9576 26.9895 21.1406 26.6235 21.165C26.2778 21.1853 26.0053 21.0023 25.7084 20.8762C25.5538 20.8112 25.4521 20.6444 25.261 20.6647C25.0454 20.3353 24.6672 20.2906 24.3418 20.1686C23.9148 20.0018 23.5202 19.8025 23.2518 19.4202C23.081 19.1843 22.9753 18.924 23.1054 18.6393C23.2477 18.3343 23.5162 18.2448 23.8375 18.257C24.5208 18.2814 25.1308 18.5254 25.7287 18.8223C25.8792 18.8996 26.0256 18.981 26.1761 19.0582L26.1761 19.0664Z" fill="#F5EAD1"/>
<path id="Vector_32" d="M43.2377 15.2555C43.6322 15.6581 43.7136 16.1218 43.4289 16.6098C43.0994 17.167 42.7293 17.7079 42.3796 18.2529C42.2901 18.3912 42.1681 18.4644 41.9891 18.4644C41.436 18.4644 40.6104 17.6713 40.9967 17.0247C41.2936 16.5163 41.4766 15.9509 41.7532 15.4303C42.0949 14.7715 42.7131 14.7064 43.2459 15.2555L43.2377 15.2555Z" fill="#F5EAD1"/>
<path id="Vector_33" d="M29.3769 62.9385C28.7262 62.2634 28.5879 61.2547 29.0109 60.4413C29.1492 60.181 29.263 59.8881 29.6616 60.0102C30.048 60.1281 30.3978 60.5104 30.3083 60.8602C30.1619 61.4459 30.2636 61.9949 30.3693 62.5562C30.414 62.7799 30.4913 63.0361 30.231 63.1825C29.9626 63.3371 29.7267 63.2069 29.503 63.0483C29.442 63.0036 29.3851 62.9466 29.3729 62.9344L29.3769 62.9385Z" fill="#F5EAD1"/>
<path id="Vector_34" d="M7.98379 39.764C7.93905 39.703 7.88211 39.646 7.84144 39.581C7.69502 39.3695 7.45913 39.1254 7.70722 38.8855C7.93905 38.6618 8.17088 38.8936 8.3539 39.0522C8.49625 39.1783 8.64673 39.1987 8.82162 39.2109C9.46829 39.2475 10.119 39.2963 10.7698 39.3369C10.9406 39.3451 11.1195 39.3532 11.2578 39.459C11.4571 39.6094 11.7093 39.7803 11.6645 40.0365C11.6157 40.3212 11.3066 40.191 11.1114 40.2154C10.542 40.2805 9.96855 40.3171 9.39915 40.3497C8.83789 40.3822 8.3783 40.1422 7.98786 39.7599L7.98379 39.764Z" fill="#F5EAD1"/>
<path id="Vector_35" d="M53.8814 31.1213C53.8204 31.0685 53.6293 31.1864 53.6862 31.0563C53.8326 30.739 53.8692 30.3445 54.2108 30.133C55.0812 29.7751 56.0085 29.6694 56.9358 29.5962C57.3669 29.5636 57.8713 29.9459 58.0014 30.3527C58.095 30.6333 58.0136 30.7878 57.6964 30.7146C56.3746 30.3933 55.1178 30.6577 53.8855 31.1173L53.8814 31.1213Z" fill="#F5EAD1"/>
<path id="Vector_36" d="M53.2632 16.1949C52.9663 16.4918 52.6491 16.7603 52.3115 17.0084C52.0878 17.167 51.9048 17.1141 51.7462 16.923C51.5713 16.7074 51.7421 16.5935 51.8926 16.4756C52.7304 15.8004 53.3079 14.9626 53.4584 13.8767C53.5032 13.5635 53.6333 13.5228 53.8977 13.6489C54.5078 13.9336 54.642 14.3363 54.3085 14.8975C54.0197 15.3815 53.6537 15.7964 53.2673 16.199L53.2632 16.1949Z" fill="#F5EAD1"/>
<path id="Vector_37" d="M17.9401 29.3033C17.566 28.799 17.448 28.136 17.4561 27.4528C17.4602 27.107 17.7937 26.9525 18.1516 27.0664C18.5502 27.1884 18.7902 27.4853 18.9488 27.8554C19.0952 28.197 19.1603 28.5631 19.2091 28.9291C19.2457 29.1935 19.2945 29.4782 19.0098 29.6327C18.7373 29.7832 18.4689 29.6937 18.2248 29.5392C18.1435 29.4904 18.0825 29.4212 17.9442 29.3074L17.9401 29.3033Z" fill="#F5EAD1"/>
<path id="Vector_38" d="M52.6287 36.6201C52.7019 36.4899 52.7792 36.3557 52.8524 36.2256C53.3364 35.9449 53.5926 35.4528 53.9587 35.0624C54.3613 34.6353 54.5484 34.0496 55.0161 33.6714C55.6059 34.3343 55.6059 34.3343 55.1097 35.099C54.703 35.7253 54.2027 36.2662 53.6048 36.7095C53.0843 37.0919 53.0558 37.0959 52.6287 36.6119L52.6287 36.6201Z" fill="#F5EAD1"/>
<path id="Vector_39" d="M17.8507 56.9354C17.7164 57.0452 17.6229 57.1469 17.505 57.2242C17.2243 57.4072 17.0372 57.5862 17.4114 57.8709C17.5253 57.9603 17.5619 58.1108 17.4846 58.2532C17.4033 58.3996 17.2569 58.3915 17.1145 58.3793C16.6509 58.3467 16.0693 57.8871 15.9269 57.4438C15.8252 57.1307 15.9391 56.8948 16.2035 56.728C16.5451 56.5165 16.8989 56.3254 17.2406 56.1139C17.5619 55.9146 17.8425 55.9024 18.0866 56.2359C18.3672 56.6141 17.9808 56.7402 17.8466 56.9314L17.8507 56.9354Z" fill="#F5EAD1"/>
<path id="Vector_40" d="M9.20799 44.4859C9.63098 44.1931 10.1922 44.0711 10.7942 44.2012C11.0423 44.2541 11.27 44.4493 11.266 44.7137C11.2619 44.9699 10.9772 44.8723 10.8145 44.9211C10.4647 45.0269 10.18 45.2302 9.90347 45.458C9.5293 45.7671 9.29747 45.7467 9.02904 45.4214C8.76468 45.1001 8.86229 44.8235 9.20799 44.4941L9.20799 44.4859Z" fill="#F5EAD1"/>
<path id="Vector_41" d="M50.709 18.1065C50.4691 18.3383 50.2373 18.5783 50.103 18.8996C49.92 19.3348 49.859 19.3388 49.5214 19.0094C49.3994 18.8874 49.3181 18.7491 49.2571 18.5905C49.4035 18.1187 49.5133 17.6347 49.8794 17.2687C50.2535 16.8945 50.7375 16.9636 50.949 17.411C51.1036 17.7364 50.7741 17.8706 50.709 18.1065Z" fill="#F5EAD1"/>
<path id="Vector_42" d="M22.9142 63.8943C22.4181 63.3737 22.3164 62.9548 22.5604 62.483C22.6499 62.3122 22.6783 62.0234 22.9997 62.1169C23.2925 62.1983 23.5609 62.6131 23.4552 62.8734C23.3169 63.1988 23.2966 63.4469 23.6219 63.6665C23.7643 63.7601 23.8782 63.9471 23.7683 64.1058C23.6585 64.2725 23.4511 64.2034 23.3006 64.1342C23.1339 64.057 22.9915 63.939 22.9142 63.8861L22.9142 63.8943Z" fill="#F5EAD1"/>
<path id="Vector_43" d="M24.0083 51.274C24.2239 50.9364 24.6021 50.8185 24.9193 50.6314C25.7002 50.1677 26.4893 49.7285 27.3962 49.4479C27.2783 49.6715 25.9605 50.8429 25.7409 50.9405C25.1593 51.0503 24.5818 51.1642 24.0002 51.274L24.0083 51.274Z" fill="#FFF0C1"/>
<path id="Vector_44" d="M55.0121 33.6755C54.5444 34.0537 54.3573 34.6394 53.9546 35.0664C53.5886 35.4569 53.3323 35.949 52.8484 36.2296C53.4218 35.225 54.0075 34.2327 55.0202 33.586C55.0161 33.6145 55.0161 33.647 55.0121 33.6755Z" fill="#FFFFFD"/>
<path id="Vector_45" d="M30.2554 36.86C30.4995 37.0797 30.6906 37.3359 30.7882 37.6531C30.5686 37.4254 30.349 37.1976 30.1334 36.9658C30.17 36.9292 30.2188 36.8966 30.2554 36.86Z" fill="#FFFEEF"/>
<path id="Vector_46" d="M40.1142 46.7594C40.1589 46.4788 39.9311 46.3405 39.8091 46.1453C40.0206 45.9338 39.9189 45.5312 40.2728 45.3888C40.3541 45.3563 40.3134 45.1854 40.2809 45.0797C40.2402 44.9496 40.1874 44.8153 40.1508 44.6811C40.0125 44.1443 40.0776 44.0711 40.5859 44.189C40.6307 44.2012 40.6795 44.1849 40.7242 44.1809C40.6348 44.856 40.5941 45.523 40.7446 46.2022C40.8422 46.6659 40.3623 46.6089 40.1101 46.7554L40.1142 46.7594Z" fill="#FFFFFD"/>
<path id="Vector_47" d="M35.5549 48.2277C35.4003 48.1057 35.2377 47.9836 35.0912 47.8535C35.0262 47.7966 34.9204 47.7396 34.953 47.6339C34.9855 47.52 35.1034 47.5485 35.1889 47.5444C35.8599 47.4753 36.531 47.3817 37.2062 47.4061C37.2631 47.398 37.3119 47.3898 37.3688 47.3817C37.4298 47.459 37.499 47.5363 37.56 47.6135C36.9296 47.9348 36.2178 48.004 35.559 48.2236L35.5549 48.2277Z" fill="#FFF0C1"/>
<path id="Vector_48" d="M43.2215 42.7086C43.5021 42.428 43.738 42.2571 43.8925 42.8265C43.9413 42.9974 44.1366 43.1356 44.283 43.2739C44.7832 43.7498 44.9174 43.7538 45.495 43.339C45.4421 43.4813 45.3892 43.6237 45.3364 43.766C45.3201 43.8067 45.2876 43.8474 45.2713 43.8881C45.2184 44.0141 45.1045 44.0711 45.0191 43.9694C44.7263 43.6196 44.1366 44.2907 43.9413 43.6481C43.8193 43.2414 43.4492 43.0258 43.2255 42.7045L43.2215 42.7086Z" fill="#FFFFFD"/>
<path id="Vector_49" d="M41.4278 42.2327C41.5214 42.3263 41.6149 42.4198 41.7085 42.5134C41.5011 42.7696 41.2936 43.0258 41.0862 43.2739C41.1309 42.9038 41.2204 42.5459 41.4278 42.2327Z" fill="#FFFFFD"/>
<path id="Vector_50" d="M37.5559 47.6176C37.4949 47.5403 37.4258 47.4631 37.3648 47.3858C37.6739 47.3858 37.983 47.1743 38.2961 47.3899C38.1091 47.5119 37.9016 47.5647 37.6861 47.5932C37.6413 47.5647 37.5966 47.5607 37.56 47.6136L37.5559 47.6176Z" fill="#FFFFFD"/>
<path id="Vector_51" d="M38.2839 47.3939C38.349 47.3451 38.4182 47.3004 38.5036 47.3288C38.4385 47.3777 38.3653 47.4183 38.2839 47.3939Z" fill="#FFFFFD"/>
<path id="Vector_52" d="M37.56 47.6136C37.5966 47.5607 37.6373 47.5688 37.6861 47.5932C37.6454 47.6339 37.6088 47.6624 37.56 47.6136Z" fill="#FFF0C1"/>
<path id="Vector_53" d="M33.0821 30.796C33.1065 30.3486 33.1228 29.9012 33.1553 29.4538C33.1756 29.1406 33.2895 29.0186 33.5905 29.2383C34.2778 29.7385 34.8676 30.2388 34.8716 31.2352C34.8716 32.2195 35.0709 33.1996 35.1807 34.1798C35.197 34.3018 35.2173 34.4279 35.319 34.5133C35.3027 34.5865 35.258 34.6638 35.2702 34.733C35.4532 35.7294 35.6403 36.7299 35.8274 37.7304C35.8559 37.8647 35.9575 37.9338 36.043 38.0192C35.9738 38.1046 35.9291 38.2063 35.9494 38.3161C36.1121 39.0563 36.1853 39.8209 36.4375 40.5449C36.47 41.1794 36.6286 41.7772 36.9743 42.3182C37.0353 41.9318 37.1777 41.5698 37.1004 41.1834C37.6861 38.369 38.1213 35.5423 37.9911 32.6547C37.9708 32.1951 37.8 31.7477 37.9342 31.28C38.0074 31.2068 38.0806 31.1335 38.1497 31.0644C38.7517 31.463 39.3821 31.8412 39.6952 32.5448C39.7237 32.614 39.7481 32.7035 39.8417 32.6994C39.9637 32.6994 39.9637 32.5774 39.9921 32.5001C40.5493 31.1457 41.0781 29.7792 41.6312 28.4208C42.0623 27.3633 42.3958 26.3059 42.3958 25.1589C42.3958 24.7766 42.5992 24.7766 42.8839 24.923C43.0425 25.0084 43.1198 25.224 43.3394 25.2077C44.3602 26.4319 44.043 27.7741 43.6932 29.1162C43.4614 29.9988 43.0832 30.8244 42.6805 31.6419C42.587 31.8331 42.4772 32.0242 42.4609 32.2439C41.6963 33.5047 41.1309 34.8509 40.7934 36.2947C40.7446 36.5062 40.9032 36.9739 40.3501 36.8031C40.2443 36.7706 40.2199 36.9495 40.2158 37.0594C40.1548 39.2434 39.5285 41.3177 38.9794 43.4041C38.8411 43.9328 38.8167 44.4697 38.8249 45.0147C38.8289 45.1408 38.9062 45.3238 38.7435 45.3889C38.6134 45.4377 38.4629 45.3278 38.3775 45.2343C37.9382 44.7707 37.4136 44.4249 36.9052 44.0467C36.6937 43.7457 36.4822 43.4448 36.2666 43.1479C36.0308 42.489 35.6444 41.9155 35.3109 41.3054C34.7577 40.2887 34.53 39.1661 34.2941 38.0517C34.0989 37.1163 33.924 36.1768 33.7328 35.2373C33.6962 35.0624 33.623 34.8916 33.5661 34.7126C33.684 34.5133 33.5661 34.3222 33.5335 34.127C33.3383 33.0207 33.1512 31.9144 33.0658 30.796L33.0821 30.796Z" fill="#FFFEEF"/>
<path id="Vector_54" d="M29.7836 39.8209C28.7058 38.8001 27.8802 37.6165 27.3922 36.2012C27.3067 35.9449 27.1522 35.7172 27.0302 35.4732C26.8146 34.5906 26.2249 33.9439 25.6352 33.3054C25.5782 33.224 25.5091 33.1468 25.5131 33.0369C25.6921 32.8336 25.8711 32.9068 26.0419 33.0369C27.502 34.1717 28.7058 35.5138 29.3851 37.2668C29.5193 37.6125 29.6779 37.95 29.7755 38.308C30.0358 39.2678 30.6987 39.8331 31.565 40.2276C32.411 40.6099 33.2732 40.9841 33.8426 41.765C34.0094 41.9968 34.3876 42.1961 34.1192 42.5866C33.3342 42.1921 32.5493 41.7894 31.7643 41.3949C31.0648 40.915 30.4018 40.3985 29.7836 39.8128L29.7836 39.8209Z" fill="#FFFEEF"/>
<path id="Vector_55" d="M25.0251 35.3715C26.2371 37.039 27.567 38.5967 29.0353 40.0487C29.076 40.1463 29.1207 40.248 29.0068 40.3375C27.9128 39.6013 26.8106 38.8652 25.7165 38.129C25.2366 37.2749 24.9844 36.3639 25.0292 35.3756L25.0251 35.3715Z" fill="#FFFFFD"/>
<path id="Vector_56" d="M25.7165 38.1209C26.8106 38.857 27.9128 39.5932 29.0068 40.3293C29.4379 40.8906 29.8324 41.4722 30.353 41.9684C30.7923 42.3833 31.26 42.7534 31.7115 43.156C31.7765 43.2211 31.9596 43.217 31.866 43.3756C31.7928 43.4976 31.6667 43.4204 31.5691 43.3878C31.2885 43.2943 31.0322 43.1682 30.8248 42.9445C29.8202 41.8667 28.6123 41.0411 27.4938 40.0935C26.8228 39.5281 26.0988 38.9669 25.7165 38.1209Z" fill="#F5EAD1"/>
<path id="Vector_57" d="M49.7573 27.9164C51.0548 26.4157 52.7955 25.4314 54.2556 24.1177C52.3847 26.0049 50.6928 28.0384 49.0334 30.1045C49.0049 30.0761 48.9764 30.0476 48.948 30.011C49.3303 29.4009 49.5662 28.7339 49.7329 28.0466C49.7655 27.9978 49.8102 27.953 49.737 27.9042L49.7492 27.9164L49.7573 27.9164Z" fill="#FFFFFD"/>
<path id="Vector_58" d="M46.9998 26.5987C47.4879 25.7771 47.9719 24.9515 48.4681 24.1299C48.8097 23.5605 49.1432 22.983 49.5824 22.4787C49.7329 22.7349 49.92 22.9626 50.1396 23.166C49.3181 23.955 48.7853 24.9352 48.3338 25.9642C47.9149 25.8625 47.6831 26.0699 47.496 26.4197C47.2235 26.9118 47.134 27.4975 46.7192 27.9124C46.6622 27.4406 46.8453 27.0217 47.008 26.5987L46.9998 26.5987Z" fill="#FFFFFD"/>
<path id="Vector_59" d="M44.5351 37.4498C44.3155 37.9541 43.8519 38.2714 43.5183 38.6781C43.0832 39.2027 42.6439 39.7396 42.1518 40.2236C42.591 38.8896 43.2133 37.641 44.0308 36.4981C44.0796 36.8804 44.2504 37.1895 44.5392 37.4457L44.5351 37.4498Z" fill="#FFFFFD"/>
<path id="Vector_60" d="M31.7643 41.403C32.5493 41.7975 33.3342 42.2002 34.1192 42.5947C34.5218 42.8753 34.9408 43.1478 35.3963 43.3349C35.7095 43.461 36.0592 43.5505 36.2829 43.1478C36.4944 43.4488 36.7059 43.7498 36.9215 44.0467C36.2951 43.9978 35.7461 43.7009 35.1929 43.4406C33.985 42.8753 32.7689 42.31 31.7643 41.403Z" fill="#FFFFFD"/>
<path id="Vector_61" d="M47.5489 32.0446C46.7436 33.0776 45.9424 34.1147 45.1208 35.1397C44.9174 35.3918 44.6531 35.5911 44.4213 35.8148C45.1208 34.5865 46.0359 33.5169 46.9917 32.4879C47.1503 32.3211 47.2927 32.1381 47.4431 31.9632C47.4757 31.9958 47.5163 32.0202 47.5489 32.0446Z" fill="#FFFFFD"/>
<path id="Vector_62" d="M47.5489 32.0446C47.5163 32.012 47.4757 31.9876 47.4431 31.9632C47.9475 31.3125 48.4477 30.6658 48.952 30.0151C48.9805 30.0435 49.009 30.072 49.0375 30.1086C48.5982 30.8 48.0776 31.4264 47.553 32.0486L47.5489 32.0446Z" fill="#FFFEEF"/>
<path id="Vector_63" d="M36.1202 45.6044C35.864 45.7386 35.6078 45.7508 35.3434 45.6085C35.3475 45.3848 35.3678 45.1936 35.6688 45.3807C35.8071 45.4702 35.9657 45.5312 36.1162 45.6003L36.1202 45.6044Z" fill="#FFFFFD"/>
<path id="Vector_64" d="M23.9392 40.1422C24.0327 40.0812 24.0815 40.1788 24.1507 40.2073C24.0571 40.252 24.0042 40.191 23.9392 40.1422Z" fill="#FEFEFE"/>
<path id="Vector_65" d="M49.7451 27.9042C49.8143 27.9571 49.7695 28.0018 49.7411 28.0466C49.7411 27.9978 49.7451 27.953 49.7451 27.9042Z" fill="#F5EAD1"/>
<path id="Vector_66" d="M46.646 27.9693C46.6704 27.9449 46.6907 27.9246 46.7151 27.9002C46.7477 27.9734 46.7192 27.9856 46.646 27.9693Z" fill="#FFFFFD"/>
<path id="Vector_67" d="M31.0485 46.064C30.7963 46.186 30.5442 46.3162 30.3246 45.9501C30.5971 45.8891 30.8289 45.9339 31.0526 46.0681L31.0485 46.064Z" fill="#FFF0C1"/>
<path id="Vector_68" d="M31.1827 46.068C31.1827 46.068 31.2071 46.0599 31.2234 46.0518C31.2112 46.0558 31.199 46.0599 31.1827 46.0599L31.1827 46.068Z" fill="#FFF0C1"/>
<path id="Vector_69" d="M30.1293 46.1941C30.1293 46.1941 30.17 46.2022 30.1903 46.1982C30.17 46.2022 30.1497 46.1982 30.1293 46.2022L30.1293 46.1941Z" fill="#FFF0C1"/>
<path id="Vector_70" d="M49.4523 36.2012C48.7853 37.3644 48.0166 38.4422 46.9307 39.3817C47.2398 38.7635 47.6668 38.2795 47.6546 37.6247C48.2078 37.096 48.8056 36.612 49.4523 36.2012Z" fill="#FFFFFD"/>
<path id="Vector_71" d="M33.0821 30.796C33.1716 31.9185 33.3586 33.0248 33.5498 34.127C33.5823 34.314 33.7044 34.5093 33.5823 34.7126C32.9967 34.0537 32.9235 33.1915 32.6998 32.3984C32.3947 31.3206 32.0287 30.2388 32.2565 29.0837C32.4273 28.9373 32.3581 28.7787 32.2849 28.616C32.3053 28.555 32.3256 28.494 32.3459 28.433C32.3703 28.433 32.3947 28.433 32.4191 28.433C32.5818 29.0512 32.7608 29.6612 32.9031 30.2835C32.9438 30.4625 32.9967 30.6292 33.078 30.7919L33.0821 30.796Z" fill="#FFFFFD"/>
<path id="Vector_72" d="M30.7841 37.6409C30.8696 37.7264 30.9509 37.8158 31.0363 37.9094C30.8655 37.9012 30.7801 37.8158 30.7841 37.6409Z" fill="#FFFEEF"/>
<path id="Vector_73" d="M38.1579 31.0644C38.0847 31.1376 38.0114 31.2108 37.9423 31.2799C37.861 30.8163 38.0277 30.373 38.0643 29.9134C38.5117 27.7822 38.7435 25.6144 39.073 23.4629C39.1096 23.2392 39.1055 23.0074 39.2763 22.8284C39.1828 23.6134 39.6017 24.1218 40.2158 24.4919C40.5209 24.6749 40.3216 24.8335 40.2443 24.984C39.2804 26.8346 38.6622 28.803 38.2026 30.8325C38.1863 30.9058 38.1741 30.983 38.1619 31.0603L38.1579 31.0644Z" fill="#FFFFFD"/>
<path id="Vector_74" d="M36.047 38.0233C35.9616 37.9378 35.8559 37.8646 35.8315 37.7345C35.6444 36.734 35.4532 35.7375 35.2743 34.737C35.2621 34.6679 35.3068 34.5906 35.3231 34.5174C35.4125 34.4848 35.502 34.4523 35.5915 34.4198C35.8437 34.6882 35.7217 35.0298 35.7583 35.3349C35.8681 36.2256 35.9535 37.1244 36.047 38.0233Z" fill="#FFFFFD"/>
<path id="Vector_75" d="M37.1085 41.1834C37.1858 41.5698 37.0475 41.9358 36.9825 42.3182C36.6368 41.7772 36.4781 41.1794 36.4456 40.5449C36.7506 40.671 36.8279 41.0329 37.1085 41.1834Z" fill="#FFFFFD"/>
<path id="Vector_76" d="M35.4573 30.0801C35.38 30.0354 35.3637 29.9866 35.4573 29.9419C35.4573 29.9907 35.4614 30.0354 35.4573 30.0801Z" fill="#FEFEFE"/>
<path id="Vector_77" d="M35.4939 30.2469C35.4166 30.2022 35.3678 30.1533 35.4573 30.072C35.4695 30.133 35.4817 30.1859 35.4939 30.2469Z" fill="#FEFEFE"/>
<path id="Vector_78" d="M20.4496 45.4783C20.5675 45.4254 20.6285 45.5027 20.6855 45.5759C20.5919 45.5718 20.4862 45.6125 20.4496 45.4783Z" fill="#FEFEFE"/>
<path id="Vector_79" d="M31.927 27.5504C31.5813 26.9932 31.6138 26.3587 31.5447 25.7446C31.5366 25.6632 31.5488 25.586 31.6627 25.6022C31.9229 26.4238 32.1751 27.2535 32.3378 28.0994C32.3175 28.1035 32.3012 28.1035 32.2809 28.1076C32.1629 27.9246 32.0409 27.7375 31.9229 27.5545L31.927 27.5504Z" fill="#FFFFFD"/>
<path id="Vector_80" d="M32.3378 28.0995C32.4069 28.2012 32.4354 28.311 32.4232 28.437C32.3988 28.437 32.3744 28.437 32.35 28.437C32.2809 28.3354 32.2483 28.2296 32.2849 28.1117C32.3053 28.1076 32.3215 28.1076 32.3419 28.1035L32.3378 28.0995Z" fill="#FFFFFD"/>
<path id="Vector_81" d="M25.6352 33.3054C26.229 33.948 26.8146 34.5906 27.0302 35.4731C26.5055 35.0705 26.2005 34.497 25.867 33.952C25.745 33.7568 25.5253 33.586 25.6352 33.3054Z" fill="#FFF0C1"/>
<path id="Vector_82" d="M49.6679 21.7832C49.2408 21.5595 49.1473 21.3276 49.4401 21.0023C49.8549 20.5467 50.2129 20.0587 50.5301 19.53C50.7009 19.2371 50.9246 19.4446 51.1239 19.5462C50.6155 20.2743 50.099 21.0023 49.6719 21.7791L49.6679 21.7832Z" fill="#F5EAD1"/>
<path id="Vector_83" d="M32.2849 28.1035C32.2443 28.2255 32.2768 28.3313 32.35 28.4289C32.3297 28.4899 32.3093 28.5509 32.289 28.6119C32.0897 28.2825 31.8375 27.9734 31.9311 27.5463C32.049 27.7293 32.171 27.9164 32.289 28.0994L32.2849 28.1035Z" fill="#FFF0C1"/>
</g>
<defs>
<clipPath id="clip0_503_7361">
<rect width="58.0356" height="93.8061" fill="white" transform="translate(0 41.6877) rotate(-45)"/>
</clipPath>
</defs>
</svg>
