<svg width="49" height="31" viewBox="0 0 49 31" fill="none" xmlns="http://www.w3.org/2000/svg">
<path id="Vector" d="M40.9789 16.5604C43.5915 19.7045 45.4932 23.4171 46.5313 27.3572C47.3644 26.7887 48.1931 26.1152 49 25.3194C47.1332 15.9219 40.883 8.33047 32.7223 5.25628C31.4269 4.84523 27.6889 3.86131 23.0045 4.43417L22.8475 3.13103C26.6509 2.6675 29.8218 3.15727 31.7322 3.61643C31.1521 1.97657 30.0835 0 28.2821 0C20.7321 0.00437295 11.4548 7.35967 7.9219 10.8624H7.94371C4.16215 14.6188 1.42739 19.6389 0.297718 25.3237V25.3106C0.297718 25.3106 0.101444 26.1677 0.0272956 26.8761C-0.0512143 27.6502 0.00984895 28.2449 0.611758 27.3572C0.651013 27.2959 0.694629 27.2347 0.738246 27.1604L0.729523 27.121C2.95397 22.8093 8.60668 19.7482 15.2277 19.7482C20.8193 19.7482 25.7131 21.9303 28.4435 25.2057C30.5284 27.707 33.2762 29.4168 36.2421 29.9328C35.191 26.9549 33.6164 24.1605 31.5926 21.7248L32.5958 20.8852C34.8508 23.6008 36.578 26.7406 37.6728 30.0859C38.2049 30.1077 38.737 30.0946 39.2779 30.0378C39.8711 29.9766 40.4686 29.8804 41.0749 29.7448C40.0935 25.9666 38.279 22.3982 35.7755 19.3853L36.783 18.5457C39.4087 21.7073 41.3191 25.4418 42.3485 29.4037C43.3429 29.0889 44.3461 28.6647 45.3449 28.1006C44.3854 24.1999 42.5404 20.5135 39.9626 17.4087L40.9658 16.5691L40.9789 16.5604Z" fill="#FFDA57"/>
</svg>
