<svg width="30" height="30" viewBox="0 0 30 30" fill="none" xmlns="http://www.w3.org/2000/svg">
<g id="uiw:smile" clip-path="url(#clip0_523_24716)">
<path id="Vector" d="M15 0C23.2845 0 30 6.7155 30 15C30 23.2845 23.2845 30 15 30C6.7155 30 0 23.2845 0 15C0 6.7155 6.7155 0 15 0ZM10.629 17.0985L10.479 17.1045C10.3454 17.1201 10.2161 17.162 10.0987 17.2278C9.98135 17.2935 9.87813 17.3819 9.79504 17.4877C9.71194 17.5935 9.6506 17.7147 9.61455 17.8444C9.5785 17.974 9.56846 18.1095 9.585 18.243C9.74659 19.562 10.3841 20.7767 11.3777 21.659C12.3714 22.5414 13.653 23.0307 14.9819 23.0351C16.3107 23.0395 17.5955 22.5587 18.5951 21.683C19.5946 20.8073 20.2401 19.5969 20.4105 18.279C20.4333 18.0158 20.3533 17.754 20.1874 17.5484C20.0215 17.3428 19.7825 17.2093 19.5204 17.176C19.2583 17.1426 18.9935 17.212 18.7814 17.3695C18.5693 17.527 18.4264 17.7605 18.3825 18.021C18.277 18.8454 17.8741 19.6029 17.2493 20.1511C16.6246 20.6993 15.8211 21.0004 14.99 20.9978C14.1588 20.9953 13.3573 20.6892 12.7359 20.1371C12.1146 19.5851 11.7163 18.8251 11.616 18C11.6004 17.8664 11.5585 17.7371 11.4927 17.6197C11.427 17.5023 11.3386 17.3991 11.2328 17.316C11.127 17.2329 11.0058 17.1716 10.8761 17.1356C10.7465 17.0995 10.611 17.0895 10.4775 17.106L10.629 17.0985ZM8.721 9.4185C8.16603 9.4185 7.6338 9.63896 7.24138 10.0314C6.84896 10.4238 6.6285 10.956 6.6285 11.511C6.6285 12.066 6.84896 12.5982 7.24138 12.9906C7.6338 13.383 8.16603 13.6035 8.721 13.6035C9.27597 13.6035 9.8082 13.383 10.2006 12.9906C10.593 12.5982 10.8135 12.066 10.8135 11.511C10.8135 10.956 10.593 10.4238 10.2006 10.0314C9.8082 9.63896 9.27597 9.4185 8.721 9.4185ZM21.279 9.4185C20.724 9.4185 20.1918 9.63896 19.7994 10.0314C19.407 10.4238 19.1865 10.956 19.1865 11.511C19.1865 12.066 19.407 12.5982 19.7994 12.9906C20.1918 13.383 20.724 13.6035 21.279 13.6035C21.834 13.6035 22.3662 13.383 22.7586 12.9906C23.151 12.5982 23.3715 12.066 23.3715 11.511C23.3715 10.956 23.151 10.4238 22.7586 10.0314C22.3662 9.63896 21.834 9.4185 21.279 9.4185Z" fill="#FFDA57"/>
</g>
<defs>
<clipPath id="clip0_523_24716">
<rect width="30" height="30" fill="white"/>
</clipPath>
</defs>
</svg>
