<svg width="89" height="84" viewBox="0 0 89 84" fill="none" xmlns="http://www.w3.org/2000/svg">
<g id="&#235;&#161;&#156;&#234;&#179;&#160;">
<g id="&#237;&#134;&#160;&#235;&#139;&#165;&#237;&#134;&#160;&#235;&#139;&#165;">
<path id="Vector" d="M70.154 77.9323C70.0849 77.9323 70.0159 77.9064 69.9468 77.8546C69.895 77.7856 69.8691 77.7079 69.8691 77.6216V75.5241C69.8691 75.4378 69.895 75.3687 69.9468 75.3169C70.0159 75.2479 70.0849 75.2134 70.154 75.2134H81.7808C82.8166 75.2134 83.628 75.4982 84.215 76.0679C84.8192 76.6203 85.1213 77.3885 85.1213 78.3725V83.1631C85.1213 83.2494 85.0868 83.3357 85.0177 83.4221C84.9487 83.5084 84.8451 83.5515 84.707 83.5515H82.1434C82.0225 83.5515 81.919 83.5084 81.8326 83.4221C81.7636 83.3357 81.7291 83.2494 81.7291 83.1631V79.6155C81.7291 79.0113 81.5737 78.5797 81.2629 78.3208C80.9695 78.0618 80.512 77.9323 79.8905 77.9323H70.154ZM87.8662 64.6741C88.1078 64.6741 88.2287 64.8122 88.2287 65.0884V66.6162C88.2287 66.7025 88.1942 66.7889 88.1251 66.8752C88.0561 66.9442 87.9697 66.9787 87.8662 66.9787H85.1213V72.7274C85.1213 72.8483 85.0781 72.9432 84.9918 73.0123C84.9055 73.0813 84.8106 73.1159 84.707 73.1159H82.0916C81.8499 73.1159 81.7291 72.9864 81.7291 72.7274V60.505C81.7291 60.2461 81.8499 60.1166 82.0916 60.1166H84.707C84.8106 60.1166 84.9055 60.1511 84.9918 60.2202C85.0781 60.2892 85.1213 60.3842 85.1213 60.505V64.6741H87.8662ZM70.1022 68.6878C70.1022 69.4992 70.4647 69.9049 71.1898 69.9049H79.3985C79.4676 69.9049 79.5366 69.9308 79.6057 69.9826C79.6747 70.0344 79.7092 70.1034 79.7092 70.1897V72.339C79.7092 72.4081 79.6747 72.4771 79.6057 72.5462C79.5366 72.598 79.4676 72.6239 79.3985 72.6239H70.0504C69.0146 72.6239 68.1946 72.3476 67.5904 71.7952C67.0034 71.2428 66.71 70.4746 66.71 69.4906V63.224C66.71 62.4989 66.9258 61.9292 67.3573 61.5149C67.8062 61.1006 68.419 60.8934 69.1959 60.8934H77.9484C78.0174 60.8934 78.0865 60.928 78.1555 60.997C78.2246 61.0488 78.2591 61.1092 78.2591 61.1783V63.3276C78.2591 63.4139 78.2246 63.4829 78.1555 63.5347C78.0865 63.5865 78.0174 63.6124 77.9484 63.6124H71.397C70.8445 63.6124 70.4906 63.7246 70.3353 63.949C70.1799 64.1735 70.1022 64.5446 70.1022 65.0625V68.6878Z" fill="#3D4C00"/>
<path id="Vector_2" d="M63.7995 77.9841C63.9722 77.9841 64.0585 78.079 64.0585 78.2689V80.3923C64.0585 80.5995 63.9722 80.7031 63.7995 80.7031H44.8962C44.6718 80.7031 44.5596 80.5995 44.5596 80.3923V78.2689C44.5596 78.079 44.6718 77.9841 44.8962 77.9841H52.587V73.9186H49.6868C48.651 73.9186 47.831 73.6424 47.2268 73.0899C46.6398 72.5203 46.3463 71.7434 46.3463 70.7594V63.7419C46.3463 63.0168 46.5621 62.4471 46.9937 62.0328C47.4425 61.6185 48.0554 61.4113 48.8322 61.4113H61.9351C62.0042 61.4113 62.0732 61.4458 62.1423 61.5149C62.2113 61.5667 62.2458 61.6271 62.2458 61.6962V63.8972C62.2458 63.9835 62.2113 64.0526 62.1423 64.1044C62.0732 64.1562 62.0042 64.1821 61.9351 64.1821H51.1887C50.6363 64.1821 50.2565 64.3115 50.0493 64.5705C49.8421 64.8122 49.7386 65.192 49.7386 65.7099V66.5644H61.7021C61.8747 66.5644 61.961 66.668 61.961 66.8751V68.8432C61.961 69.0158 61.8747 69.1021 61.7021 69.1021H49.7386V69.4646C49.7386 70.0689 49.8853 70.5004 50.1788 70.7594C50.4895 71.0183 50.9556 71.1478 51.5771 71.1478H61.961C62.0301 71.1478 62.0905 71.1823 62.1423 71.2514C62.2113 71.3032 62.2458 71.3722 62.2458 71.4586V73.6078C62.2458 73.6942 62.2113 73.7718 62.1423 73.8409C62.0905 73.8927 62.0301 73.9186 61.961 73.9186H55.9793V77.9841H63.7995Z" fill="#3D4C00"/>
<path id="Vector_3" d="M25.5944 77.9323C25.5254 77.9323 25.4563 77.9064 25.3873 77.8546C25.3355 77.7856 25.3096 77.7079 25.3096 77.6216V75.5241C25.3096 75.4378 25.3355 75.3687 25.3873 75.3169C25.4563 75.2479 25.5254 75.2134 25.5944 75.2134H37.2213C38.2571 75.2134 39.0684 75.4982 39.6554 76.0679C40.2596 76.6203 40.5617 77.3885 40.5617 78.3725V83.1631C40.5617 83.2494 40.5272 83.3357 40.4581 83.4221C40.3891 83.5084 40.2855 83.5515 40.1474 83.5515H37.5838C37.463 83.5515 37.3594 83.5084 37.2731 83.4221C37.204 83.3357 37.1695 83.2494 37.1695 83.1631V79.6155C37.1695 79.0113 37.0141 78.5797 36.7034 78.3208C36.4099 78.0618 35.9524 77.9323 35.3309 77.9323H25.5944ZM43.3066 64.6741C43.5483 64.6741 43.6691 64.8122 43.6691 65.0884V66.6162C43.6691 66.7025 43.6346 66.7889 43.5655 66.8752C43.4965 66.9442 43.4102 66.9787 43.3066 66.9787H40.5617V72.7274C40.5617 72.8483 40.5186 72.9432 40.4322 73.0123C40.3459 73.0813 40.251 73.1159 40.1474 73.1159H37.532C37.2903 73.1159 37.1695 72.9864 37.1695 72.7274V60.505C37.1695 60.2461 37.2903 60.1166 37.532 60.1166H40.1474C40.251 60.1166 40.3459 60.1511 40.4322 60.2202C40.5186 60.2892 40.5617 60.3842 40.5617 60.505V64.6741H43.3066ZM25.5426 68.6878C25.5426 69.4992 25.9052 69.9049 26.6302 69.9049H34.8389C34.908 69.9049 34.977 69.9308 35.0461 69.9826C35.1151 70.0344 35.1497 70.1034 35.1497 70.1897V72.339C35.1497 72.4081 35.1151 72.4771 35.0461 72.5462C34.977 72.598 34.908 72.6239 34.8389 72.6239H25.4908C24.455 72.6239 23.635 72.3476 23.0308 71.7952C22.4439 71.2428 22.1504 70.4746 22.1504 69.4906V63.224C22.1504 62.4989 22.3662 61.9292 22.7978 61.5149C23.2466 61.1006 23.8595 60.8934 24.6363 60.8934H33.3888C33.4579 60.8934 33.5269 60.928 33.596 60.997C33.665 61.0488 33.6996 61.1092 33.6996 61.1783V63.3276C33.6996 63.4139 33.665 63.4829 33.596 63.5347C33.5269 63.5865 33.4579 63.6124 33.3888 63.6124H26.8374C26.285 63.6124 25.9311 63.7246 25.7757 63.949C25.6203 64.1735 25.5426 64.5446 25.5426 65.0625V68.6878Z" fill="#3D4C00"/>
<path id="Vector_4" d="M19.24 77.9841C19.4126 77.9841 19.4989 78.079 19.4989 78.2689V80.3923C19.4989 80.5995 19.4126 80.7031 19.24 80.7031H0.336635C0.112212 80.7031 0 80.5995 0 80.3923V78.2689C0 78.079 0.112212 77.9841 0.336635 77.9841H8.02745V73.9186H5.12721C4.09141 73.9186 3.2714 73.6424 2.66718 73.0899C2.08023 72.5203 1.78675 71.7434 1.78675 70.7594V63.7419C1.78675 63.0168 2.00255 62.4471 2.43413 62.0328C2.88297 61.6185 3.49582 61.4113 4.27267 61.4113H17.3755C17.4446 61.4113 17.5136 61.4458 17.5827 61.5149C17.6517 61.5667 17.6863 61.6271 17.6863 61.6962V63.8972C17.6863 63.9835 17.6517 64.0526 17.5827 64.1044C17.5136 64.1562 17.4446 64.1821 17.3755 64.1821H6.62912C6.07669 64.1821 5.6969 64.3115 5.48974 64.5705C5.28258 64.8122 5.179 65.192 5.179 65.7099V66.5644H17.1425C17.3151 66.5644 17.4014 66.668 17.4014 66.8751V68.8432C17.4014 69.0158 17.3151 69.1021 17.1425 69.1021H5.179V69.4646C5.179 70.0689 5.32574 70.5004 5.61921 70.7594C5.92995 71.0183 6.39606 71.1478 7.01754 71.1478H17.4014C17.4705 71.1478 17.5309 71.1823 17.5827 71.2514C17.6517 71.3032 17.6863 71.3722 17.6863 71.4586V73.6078C17.6863 73.6942 17.6517 73.7718 17.5827 73.8409C17.5309 73.8927 17.4705 73.9186 17.4014 73.9186H11.4197V77.9841H19.24Z" fill="#3D4C00"/>
</g>
<path id="Vector_5" d="M70.2317 26.9122C74.3906 31.9268 77.4178 37.8481 79.0702 44.132C80.3964 43.2253 81.7155 42.1513 83 40.8819C80.0284 25.8939 70.079 13.7863 57.0885 8.88326C55.0265 8.22766 49.0763 6.65842 41.6194 7.57207L41.3695 5.49369C47.4238 4.7544 52.4714 5.53554 55.5125 6.26785C54.589 3.65244 52.888 0.5 50.0205 0.5C38.0021 0.506974 23.2342 12.238 17.6104 17.8245H17.6451C11.6255 23.8155 7.27217 31.8221 5.47392 40.8889V40.868C5.47392 40.868 5.16148 42.235 5.04345 43.3648C4.91848 44.5993 5.01568 45.5478 5.97382 44.132C6.03631 44.0344 6.10574 43.9367 6.17517 43.8182L6.16128 43.7554C9.70224 36.8786 18.7004 31.9965 29.24 31.9965C38.141 31.9965 45.9311 35.4767 50.2774 40.7006C53.5962 44.69 57.9703 47.417 62.6916 48.24C61.0183 43.4904 58.5119 39.0337 55.2903 35.1489L56.8872 33.8099C60.4768 38.141 63.2262 43.1486 64.9689 48.4841C65.816 48.5189 66.663 48.498 67.5239 48.4073C68.4682 48.3097 69.4194 48.1563 70.3845 47.9401C68.8223 41.9141 65.934 36.223 61.9487 31.4176L63.5525 30.0785C67.7322 35.1211 70.7733 41.0772 72.4118 47.396C73.9949 46.8939 75.5918 46.2174 77.1817 45.3177C75.6543 39.0965 72.7173 33.217 68.614 28.2652L70.2109 26.9261L70.2317 26.9122Z" fill="#3D4C00"/>
</g>
</svg>
